<?xml version="1.0" encoding="utf-8"?>
<!-- Generator: Adobe Illustrator 27.5.0, SVG Export Plug-In . SVG Version: 6.00 Build 0)  -->
<svg version="1.1" xmlns="http://www.w3.org/2000/svg" xmlns:xlink="http://www.w3.org/1999/xlink" x="0px" y="0px"
	 viewBox="0 0 2200 1466" style="enable-background:new 0 0 2200 1466;" xml:space="preserve">
<g id="background">
	<rect x="0" y="0" style="fill:#FFFFFF;" width="2200" height="1455.888"/>
</g>
<g id="objects">
	<g>
		<g>
			<path d="M227.012,663.619h283.894V379.725H227.012V663.619z M262.352,415.064h213.215V628.28H262.352V415.064z"/>
		</g>
		<g>
			<rect x="306.526" y="459.239" width="124.866" height="124.866"/>
		</g>
		<g>
			<path d="M227.012,1086.273h283.894V802.378H227.012V1086.273z M262.352,837.718h213.215v213.215H262.352V837.718z"/>
		</g>
		<g>
			<rect x="306.526" y="881.892" width="124.866" height="124.866"/>
		</g>
		<g>
			<path d="M933.56,379.725H649.666v283.894H933.56V379.725z M898.221,628.28H685.005V415.064h213.215V628.28z"/>
		</g>
		<g>
			<rect x="729.18" y="459.239" width="124.866" height="124.866"/>
		</g>
		<g>
			<polygon points="744.302,897.014 744.302,991.642 838.929,991.642 838.929,1086.275 933.563,1086.275 933.563,897.014 			"/>
		</g>
		<g>
			<rect x="649.668" y="802.381" width="94.631" height="94.631"/>
		</g>
		<g>
			<rect x="649.668" y="991.642" width="94.631" height="94.631"/>
		</g>
		<path d="M118.645,271.358v236.549h40.15V311.509h196.398v-40.15H118.645z"/>
		<path d="M805.378,271.358v40.15h196.398v196.398h40.15V271.358H805.378z"/>
		<path d="M355.194,1194.642v-40.15H158.796V958.093h-40.15v236.549H355.194z"/>
		<path d="M1041.927,1194.642V958.093h-40.15v196.398H805.378v40.15H1041.927z"/>
	</g>
	<g>
		<path d="M1265.448,615.099h235.374V379.725h-235.374V615.099z M1294.747,409.024h176.775v176.775h-176.775V409.024z"/>
		<rect x="1331.372" y="445.649" width="103.526" height="103.526"/>
		<path d="M1265.448,1085.848h235.374V850.473h-235.374V1085.848z M1294.747,879.773h176.775v176.775h-176.775V879.773z"/>
		<rect x="1331.372" y="916.398" width="103.526" height="103.526"/>
		<path d="M1971.571,379.725h-235.374v235.374h235.374V379.725z M1942.271,585.799h-176.775V409.024h176.775V585.799z"/>
		<rect x="1802.121" y="445.649" width="103.526" height="103.526"/>
		<polygon points="1198.224,311.509 1394.622,311.509 1394.622,271.358 1158.073,271.358 1158.073,507.907 1198.224,507.907 		"/>
		<polygon points="1844.806,271.358 1844.806,311.509 2041.204,311.509 2041.204,507.907 2081.354,507.907 2081.354,271.358 		"/>
		<polygon points="1198.224,958.093 1158.073,958.093 1158.073,1194.642 1394.622,1194.642 1394.622,1154.491 1198.224,1154.491 		
			"/>
		<polygon points="2041.204,1154.491 1844.806,1154.491 1844.806,1194.642 2081.354,1194.642 2081.354,958.093 2041.204,958.093 		
			"/>
		<rect x="1534.447" y="446.974" width="33.625" height="33.625"/>
		<rect x="1601.697" y="446.974" width="33.625" height="33.625"/>
		<rect x="1601.697" y="379.725" width="33.625" height="33.625"/>
		<polygon points="1702.572,413.35 1702.572,379.725 1668.947,379.725 1668.947,413.35 1668.947,446.974 1702.572,446.974 		"/>
		<rect x="1668.947" y="581.474" width="33.625" height="33.625"/>
		<polygon points="1837.071,850.473 1870.696,850.473 1870.696,816.849 1870.696,783.224 1837.071,783.224 1837.071,816.849 		"/>
		<polygon points="1971.571,951.348 1971.571,917.723 1971.571,884.098 1971.571,850.473 1971.571,816.849 1937.946,816.849 
			1937.946,783.224 1904.321,783.224 1904.321,816.849 1904.321,850.473 1904.321,884.098 1904.321,917.723 1904.321,951.348 
			1904.321,984.973 1937.946,984.973 1937.946,951.348 		"/>
		<rect x="1870.696" y="984.973" width="33.625" height="33.625"/>
		<rect x="1937.946" y="984.973" width="33.625" height="33.625"/>
		<polygon points="1904.321,1052.223 1904.321,1085.848 1937.946,1085.848 1971.571,1085.848 1971.571,1052.223 1937.946,1052.223 
			1937.946,1018.598 1904.321,1018.598 		"/>
		<polygon points="1803.446,917.723 1837.071,917.723 1837.071,884.098 1837.071,850.473 1803.446,850.473 1803.446,884.098 
			1769.821,884.098 1736.197,884.098 1736.197,917.723 1736.197,951.348 1769.821,951.348 1769.821,984.973 1736.197,984.973 
			1736.197,951.348 1702.572,951.348 1702.572,984.973 1702.572,1018.598 1668.947,1018.598 1668.947,984.973 1668.947,951.348 
			1635.322,951.348 1635.322,984.973 1635.322,1018.598 1601.697,1018.598 1601.697,1052.223 1568.072,1052.223 1568.072,1018.598 
			1601.697,1018.598 1601.697,984.973 1601.697,951.348 1601.697,917.723 1568.072,917.723 1568.072,884.098 1568.072,850.473 
			1601.697,850.473 1635.322,850.473 1635.322,816.849 1601.697,816.849 1568.072,816.849 1534.447,816.849 1534.447,850.473 
			1534.447,884.098 1534.447,917.723 1534.447,951.348 1568.072,951.348 1568.072,984.973 1534.447,984.973 1534.447,1018.598 
			1534.447,1052.223 1534.447,1085.848 1568.072,1085.848 1601.697,1085.848 1635.322,1085.848 1668.947,1085.848 
			1668.947,1052.223 1702.572,1052.223 1702.572,1085.848 1736.197,1085.848 1769.821,1085.848 1769.821,1052.223 
			1736.197,1052.223 1736.197,1018.598 1769.821,1018.598 1803.446,1018.598 1837.071,1018.598 1837.071,984.973 1837.071,951.348 
			1803.446,951.348 		"/>
		<rect x="1837.071" y="917.723" width="33.625" height="33.625"/>
		<rect x="1870.696" y="648.724" width="33.625" height="33.625"/>
		<polygon points="1904.321,749.599 1937.946,749.599 1971.571,749.599 1971.571,715.974 1971.571,682.349 1937.946,682.349 
			1904.321,682.349 1904.321,715.974 1870.696,715.974 1870.696,682.349 1837.071,682.349 1837.071,715.974 1837.071,749.599 
			1870.696,749.599 		"/>
		<polygon points="1601.697,615.099 1601.697,648.724 1601.697,682.349 1635.322,682.349 1635.322,648.724 1635.322,615.099 
			1635.322,581.474 1668.947,581.474 1668.947,547.849 1702.572,547.849 1702.572,514.224 1702.572,480.599 1668.947,480.599 
			1668.947,514.224 1635.322,514.224 1635.322,547.849 1601.697,547.849 1601.697,514.224 1568.072,514.224 1568.072,547.849 
			1568.072,581.474 1601.697,581.474 		"/>
		<polygon points="1433.572,783.224 1433.572,816.849 1467.197,816.849 1500.822,816.849 1500.822,783.224 1467.197,783.224 
			1467.197,749.599 1433.572,749.599 		"/>
		<rect x="1467.197" y="715.974" width="33.625" height="33.625"/>
		<polygon points="1399.947,715.974 1399.947,682.349 1366.322,682.349 1366.322,648.724 1332.698,648.724 1299.073,648.724 
			1265.448,648.724 1265.448,682.349 1265.448,715.974 1265.448,749.599 1265.448,783.224 1265.448,816.849 1299.073,816.849 
			1299.073,783.224 1332.698,783.224 1366.322,783.224 1366.322,749.599 1332.698,749.599 1332.698,715.974 1366.322,715.974 
			1366.322,749.599 1399.947,749.599 1433.572,749.599 1433.572,715.974 		"/>
		<rect x="1366.322" y="783.224" width="33.625" height="33.625"/>
		<path d="M1668.947,783.224h33.625v33.625h33.625v33.625h33.625h33.625v-33.625v-33.625h33.625v-33.625h-33.625v-33.625v-33.625
			h-33.625v33.625h-33.625v-33.625h33.625v-33.625h-33.625h-33.625h-33.625v33.625h33.625v33.625v33.625h-33.625v-33.625v-33.625
			h-33.625v33.625h-33.625h-33.625v-33.625v-33.625v-33.625v-33.625h-33.625v33.625v33.625h-33.625h-33.625h-33.625h-33.625v33.625
			h33.625v33.625h33.625v-33.625h33.625h33.625v33.625v33.625v33.625h33.625h33.625h33.625v33.625h33.625V783.224z
			 M1769.821,749.599v33.625h-33.625v-33.625H1769.821z"/>
		<rect x="1668.947" y="850.473" width="33.625" height="33.625"/>
		<rect x="1668.947" y="917.723" width="33.625" height="33.625"/>
		<rect x="1601.697" y="884.098" width="33.625" height="33.625"/>
	</g>
</g>
</svg>
