<svg width="1024" height="768" viewBox="0 0 1024 768" fill="none" xmlns="http://www.w3.org/2000/svg">
<rect width="1024" height="768" fill="#1E1E1E"/>
<g id="New Contractors">
<path d="M-3011 -235C-3011 -236.105 -3010.1 -237 -3009 -237H7229C7230.1 -237 7231 -236.105 7231 -235V1332C7231 1333.1 7230.1 1334 7229 1334H-3009C-3010.1 1334 -3011 1333.1 -3011 1332V-235Z" fill="#37393C"/>
<path d="M-3009 -237V-236H7229V-237V-238H-3009V-237ZM7231 -235H7230V1332H7231H7232V-235H7231ZM7229 1334V1333H-3009V1334V1335H7229V1334ZM-3011 1332H-3010V-235H-3011H-3012V1332H-3011ZM-3009 1334V1333C-3009.55 1333 -3010 1332.55 -3010 1332H-3011H-3012C-3012 1333.66 -3010.66 1335 -3009 1335V1334ZM7231 1332H7230C7230 1332.55 7229.55 1333 7229 1333V1334V1335C7230.66 1335 7232 1333.66 7232 1332H7231ZM7229 -237V-236C7229.55 -236 7230 -235.552 7230 -235H7231H7232C7232 -236.657 7230.66 -238 7229 -238V-237ZM-3009 -237V-238C-3010.66 -238 -3012 -236.657 -3012 -235H-3011H-3010C-3010 -235.552 -3009.55 -236 -3009 -236V-237Z" fill="white" fill-opacity="0.1"/>
<g id="Contractor - Email check" clip-path="url(#clip0_23_244)">
<rect width="1024" height="768" fill="#F3F4F6"/>
<g id="Content containers ">
<g id="Title + Type selector">
<g id="Title">
<g id="Title text">
<text id="Enter your email" fill="#032461" style="white-space: pre" xml:space="preserve" font-family="Inter" font-size="38" font-weight="bold" letter-spacing="0px"><tspan x="361.243" y="147.636">Enter your email </tspan></text>
</g>
<g id="Subtext container">
<text id="Subtext" fill="#111827" style="white-space: pre" xml:space="preserve" font-family="Inter" font-size="16" letter-spacing="0px"><tspan x="271.125" y="189.818">We&#39;ll look you up in the system to check your registration status</tspan></text>
</g>
</g>
<g id="Text input">
<g id="input field">
<mask id="path-5-inside-1_23_244" fill="white">
<path d="M233 254C233 248.477 237.477 244 243 244H781C786.523 244 791 248.477 791 254V282C791 287.523 786.523 292 781 292H243C237.477 292 233 287.523 233 282V254Z"/>
</mask>
<path d="M233 254C233 248.477 237.477 244 243 244H781C786.523 244 791 248.477 791 254V282C791 287.523 786.523 292 781 292H243C237.477 292 233 287.523 233 282V254Z" fill="white"/>
<path d="M243 244V245H781V244V243H243V244ZM791 254H790V282H791H792V254H791ZM781 292V291H243V292V293H781V292ZM233 282H234V254H233H232V282H233ZM243 292V291C238.029 291 234 286.971 234 282H233H232C232 288.075 236.925 293 243 293V292ZM791 282H790C790 286.971 785.971 291 781 291V292V293C787.075 293 792 288.075 792 282H791ZM781 244V245C785.971 245 790 249.029 790 254H791H792C792 247.925 787.075 243 781 243V244ZM243 244V243C236.925 243 232 247.925 232 254H233H234C234 249.029 238.029 245 243 245V244Z" fill="#E5E7EB" mask="url(#path-5-inside-1_23_244)"/>
<g id="Placeholder container" clip-path="url(#clip1_23_244)">
<text id="Enter first name" fill="#9CA3AF" style="white-space: pre" xml:space="preserve" font-family="Inter" font-size="14" letter-spacing="0px"><tspan x="248.5" y="273.091">Enter your email </tspan></text>
</g>
</g>
</g>
</g>
</g>
<g id="CTA container">
<rect x="0.5" y="696.5" width="1023" height="71" fill="white"/>
<rect x="0.5" y="696.5" width="1023" height="71" stroke="#E5E7EB"/>
<g id="Secondary button">
<mask id="path-9-inside-2_23_244" fill="white">
<path d="M48 720C48 714.477 52.4772 710 58 710H153C158.523 710 163 714.477 163 720V744C163 749.523 158.523 754 153 754H58C52.4772 754 48 749.523 48 744V720Z"/>
</mask>
<path d="M58 710V711H153V710V709H58V710ZM163 720H162V744H163H164V720H163ZM153 754V753H58V754V755H153V754ZM48 744H49V720H48H47V744H48ZM58 754V753C53.0294 753 49 748.971 49 744H48H47C47 750.075 51.9249 755 58 755V754ZM163 744H162C162 748.971 157.971 753 153 753V754V755C159.075 755 164 750.075 164 744H163ZM153 710V711C157.971 711 162 715.029 162 720H163H164C164 713.925 159.075 709 153 709V710ZM58 710V709C51.9249 709 47 713.925 47 720H48H49C49 715.029 53.0294 711 58 711V710Z" fill="#E5E7EB" mask="url(#path-9-inside-2_23_244)"/>
<text id="Go Back" fill="#6B7280" style="white-space: pre" xml:space="preserve" font-family="Inter" font-size="16" font-weight="600" letter-spacing="0px"><tspan x="73.5859" y="737.818">Go Back</tspan></text>
</g>
<g id="ADA logo + text">
<g id="text">
<text id="Powered by" fill="#6B7280" style="white-space: pre" xml:space="preserve" font-family="Inter" font-size="12" letter-spacing="0px"><tspan x="881.52" y="736.364">Powered by</tspan></text>
</g>
<g id="Logo">
<text id="ADA" fill="#111827" style="white-space: pre" xml:space="preserve" font-family="Inter" font-size="12" letter-spacing="0px"><tspan x="951" y="736.364">ADA</tspan></text>
</g>
</g>
</g>
<g id="Nav bar ">
<mask id="path-14-inside-3_23_244" fill="white">
<path d="M0 0H1024V64H0V0Z"/>
</mask>
<path d="M0 0H1024V64H0V0Z" fill="white"/>
<path d="M1024 64V63H0V64V65H1024V64Z" fill="#E5E7EB" mask="url(#path-14-inside-3_23_244)"/>
<g id="Company logo">
<g id="Vector">
<path d="M53.6692 24.0708C53.3248 24.2975 53.0381 24.6025 52.832 24.9612C52.626 25.3199 52.5063 25.7223 52.4828 26.1361V28.488C52.5063 28.9018 52.626 29.3042 52.832 29.6629C53.0381 30.0216 53.3248 30.3266 53.6692 30.5533L56.124 32.0111C56.775 32.3902 57.3103 32.0792 57.3103 31.3211V23.3516C57.3103 22.5935 56.775 22.2826 56.124 22.6616L53.6692 24.0708Z" fill="#032461"/>
<path d="M53.4134 31.0629C53.057 30.8841 52.6632 30.7909 52.2638 30.7909C51.8644 30.7909 51.4706 30.8841 51.1141 31.0629L49.152 32.1783C48.8177 32.395 48.5392 32.6867 48.3391 33.0297C48.1391 33.3727 48.0229 33.7575 48 34.1532V36.8856C48 37.6105 48.5198 37.9079 49.152 37.5455L55.8017 33.735C56.4339 33.3725 56.4339 32.7823 55.8017 32.4199L53.4134 31.0629Z" fill="#032461"/>
<path d="M62.3309 24.0708C62.6752 24.2975 62.9619 24.6025 63.168 24.9612C63.374 25.3199 63.4937 25.7223 63.5172 26.1361V28.488C63.4937 28.9018 63.374 29.3042 63.168 29.6629C62.9619 30.0216 62.6752 30.3266 62.3309 30.5533L59.8712 32.0111C59.2202 32.3902 58.6897 32.0792 58.6897 31.3211V23.3516C58.6897 22.5935 59.2202 22.2826 59.8712 22.6616L62.3309 24.0708Z" fill="#032461"/>
<path d="M62.3627 31.0629C62.7342 30.8841 63.1447 30.7909 63.5609 30.7909C63.9772 30.7909 64.3877 30.8841 64.7592 31.0629L66.8042 32.1783C67.1521 32.3953 67.4415 32.6871 67.6492 33.0301C67.8569 33.3731 67.9771 33.7578 68 34.1532V36.8856C68 37.6105 67.4631 37.9079 66.8042 37.5455L59.8735 33.735C59.2146 33.3725 59.2146 32.7823 59.8735 32.4199L62.3627 31.0629Z" fill="#032461"/>
<path d="M52.2434 41.2283C52.6 41.4069 52.994 41.5 53.3937 41.5C53.7933 41.5 54.1873 41.4069 54.544 41.2283L56.5072 40.1099C56.8413 39.8922 57.1191 39.5999 57.3185 39.2566C57.5178 38.9132 57.6331 38.5284 57.6552 38.133V35.4042C57.6552 34.6802 57.1398 34.3833 56.5072 34.7452L49.8537 38.5506C49.2212 38.9126 49.2212 39.502 49.8537 39.8639L52.2434 41.2283Z" fill="#032461"/>
<path d="M58 38.1352C58.0233 38.5297 58.1437 38.9135 58.3513 39.2558C58.559 39.5981 58.8482 39.8893 59.1958 40.1062L61.2409 41.2285C61.6123 41.407 62.0228 41.5 62.4391 41.5C62.8554 41.5 63.2658 41.407 63.6373 41.2285L66.1265 39.8604C66.7854 39.4987 66.7854 38.9097 66.1265 38.548L59.1958 34.7451C58.5369 34.3834 58 34.6802 58 35.4037V38.1352Z" fill="#032461"/>
</g>
<g id="Name">
<text id="Nexus Technologies" fill="#111827" style="white-space: pre" xml:space="preserve" font-family="Inter" font-size="12" font-weight="bold" letter-spacing="0px"><tspan x="75.4399" y="36.3636">Nexus Technologies</tspan></text>
</g>
</g>
<g id="ADA logo + text_2">
<g id="Text">
<text id="Contractor check-in" fill="#111827" style="white-space: pre" xml:space="preserve" font-family="Inter" font-size="14" font-weight="bold" letter-spacing="0em"><tspan x="472.72" y="37.0909">Contractor check-in</tspan></text>
</g>
</g>
<g id="Date &#38; time">
<g id="Date">
<text id="16 March, Monday" fill="#111827" style="white-space: pre" xml:space="preserve" font-family="Inter" font-size="6.8" letter-spacing="0em"><tspan x="890.663" y="30.4727">16 March,&#10;</tspan><tspan x="896.208" y="38.4727">Monday</tspan></text>
</g>
<path id="divider" d="M930 24.25V39.75" stroke="#E5E7EB" stroke-linecap="round"/>
<g id="Time">
<text id="09:57" fill="#111827" style="white-space: pre" xml:space="preserve" font-family="Inter" font-size="14" font-weight="bold" letter-spacing="-0.62px"><tspan x="938.08" y="36.7709">09:57</tspan></text>
</g>
</g>
</g>
</g>
</g>
<defs>
<clipPath id="clip0_23_244">
<rect width="1024" height="768" fill="white"/>
</clipPath>
<clipPath id="clip1_23_244">
<rect width="527" height="21" fill="white" transform="translate(248.5 257.5)"/>
</clipPath>
</defs>
</svg>
