<svg width="1024" height="785" viewBox="0 0 1024 785" fill="none" xmlns="http://www.w3.org/2000/svg">
<rect width="1024" height="785" fill="#1E1E1E"/>
<g id="New Contractors">
<path d="M-4468 -235C-4468 -236.105 -4467.1 -237 -4466 -237H5772C5773.1 -237 5774 -236.105 5774 -235V1332C5774 1333.1 5773.1 1334 5772 1334H-4466C-4467.1 1334 -4468 1333.1 -4468 1332V-235Z" fill="#37393C"/>
<path d="M-4466 -237V-236H5772V-237V-238H-4466V-237ZM5774 -235H5773V1332H5774H5775V-235H5774ZM5772 1334V1333H-4466V1334V1335H5772V1334ZM-4468 1332H-4467V-235H-4468H-4469V1332H-4468ZM-4466 1334V1333C-4466.55 1333 -4467 1332.55 -4467 1332H-4468H-4469C-4469 1333.66 -4467.66 1335 -4466 1335V1334ZM5774 1332H5773C5773 1332.55 5772.55 1333 5772 1333V1334V1335C5773.66 1335 5775 1333.66 5775 1332H5774ZM5772 -237V-236C5772.55 -236 5773 -235.552 5773 -235H5774H5775C5775 -236.657 5773.66 -238 5772 -238V-237ZM-4466 -237V-238C-4467.66 -238 -4469 -236.657 -4469 -235H-4468H-4467C-4467 -235.552 -4466.55 -236 -4466 -236V-237Z" fill="white" fill-opacity="0.1"/>
<g id="Contractor - Onboarding - step 3" clip-path="url(#clip0_23_244)">
<rect width="1024" height="785" fill="#F3F4F6"/>
<g id="Progress indicator + input field container">
<g id="Progress indicator container">
<rect x="0.5" y="64.5" width="1023" height="74" stroke="#E5E7EB"/>
<g id="Progress bar">
<rect width="1021" height="4" transform="translate(1.5 65.5)" fill="#E5E7EB"/>
<path id="Progress line" d="M1 65H381C382.105 65 383 65.8954 383 67C383 68.1046 382.105 69 381 69H1V65Z" fill="#0846C3"/>
</g>
<g id="Progress container">
<rect width="1021" height="68" transform="translate(1.5 69.5)" fill="white"/>
<g id="Active">
<rect x="127" y="81.5" width="188" height="44" rx="22" fill="#0846C3" fill-opacity="0.1"/>
<g id="label">
<rect x="141" y="92.5" width="22" height="22" rx="11" fill="#0846C3"/>
<g id="number">
<text id="1" fill="#EBF1FC" style="white-space: pre" xml:space="preserve" font-family="Inter" font-size="12" font-weight="bold" letter-spacing="0px"><tspan x="149" y="107.864">1</tspan></text>
</g>
</g>
<g id="Progress text">
<text id="Company details" fill="#032461" style="white-space: pre" xml:space="preserve" font-family="Inter" font-size="16" font-weight="600" letter-spacing="0px"><tspan x="171" y="109.318">Company details</tspan></text>
</g>
</g>
<g id="Component 1">
<path id="Vector" d="M370.2 99L374.7 103.5L370.2 108" stroke="#9CA3AF" stroke-width="2" stroke-linecap="round" stroke-linejoin="round"/>
</g>
<g id="Upcoming">
<g id="div">
<rect x="443" y="92.5" width="22" height="22" rx="11" fill="#E5E7EB"/>
<g id="span">
<text id="2" fill="#9CA3AF" style="white-space: pre" xml:space="preserve" font-family="Inter" font-size="12" font-weight="bold" letter-spacing="0px"><tspan x="450" y="107.864">2</tspan></text>
</g>
</g>
<g id="span_2">
<text id="Personal details" fill="#9CA3AF" style="white-space: pre" xml:space="preserve" font-family="Inter" font-size="16" font-weight="600" letter-spacing="0px"><tspan x="473" y="109.318">Personal details</tspan></text>
</g>
</g>
<g id="Component 2">
<path id="Vector_2" d="M666.2 99L670.7 103.5L666.2 108" stroke="#9CA3AF" stroke-width="2" stroke-linecap="round" stroke-linejoin="round"/>
</g>
<g id="Upcoming_2">
<g id="div_2">
<rect x="739" y="92.5" width="22" height="22" rx="11" fill="#E5E7EB"/>
<g id="span_3">
<text id="3" fill="#9CA3AF" style="white-space: pre" xml:space="preserve" font-family="Inter" font-size="12" font-weight="bold" letter-spacing="0px"><tspan x="746" y="107.864">3</tspan></text>
</g>
</g>
<g id="span_4">
<text id="Safety training" fill="#9CA3AF" style="white-space: pre" xml:space="preserve" font-family="Inter" font-size="16" font-weight="600" letter-spacing="0px"><tspan x="769" y="109.318">Safety training</tspan></text>
</g>
</g>
</g>
</g>
<g id="Input field container + info card">
<g id="Info">
<mask id="path-19-inside-1_23_244" fill="white">
<path d="M123 171H889C895.627 171 901 176.373 901 183V243C901 249.627 895.627 255 889 255H123V171Z"/>
</mask>
<path d="M123 171H889C895.627 171 901 176.373 901 183V243C901 249.627 895.627 255 889 255H123V171Z" fill="white"/>
<g clip-path="url(#paint0_diamond_23_244_clip_path)" data-figma-skip-parse="true" mask="url(#path-19-inside-1_23_244)"><g transform="matrix(0.09725 0 0 0.042 123 213)"><rect x="0" y="0" width="8010.28" height="1023.81" fill="url(#paint0_diamond_23_244)" opacity="1" shape-rendering="crispEdges"/><rect x="0" y="0" width="8010.28" height="1023.81" transform="scale(1 -1)" fill="url(#paint0_diamond_23_244)" opacity="1" shape-rendering="crispEdges"/><rect x="0" y="0" width="8010.28" height="1023.81" transform="scale(-1 1)" fill="url(#paint0_diamond_23_244)" opacity="1" shape-rendering="crispEdges"/><rect x="0" y="0" width="8010.28" height="1023.81" transform="scale(-1)" fill="url(#paint0_diamond_23_244)" opacity="1" shape-rendering="crispEdges"/></g></g><path d="M119 169.5H889C896.456 169.5 902.5 175.544 902.5 183H899.5C899.5 177.201 894.799 172.5 889 172.5H127L119 169.5ZM902.5 243C902.5 250.456 896.456 256.5 889 256.5H119L127 253.5H889C894.799 253.5 899.5 248.799 899.5 243H902.5ZM119 256.5V169.5L127 172.5V253.5L119 256.5ZM889 169.5C896.456 169.5 902.5 175.544 902.5 183V243C902.5 250.456 896.456 256.5 889 256.5V253.5C894.799 253.5 899.5 248.799 899.5 243V183C899.5 177.201 894.799 172.5 889 172.5V169.5Z" data-figma-gradient-fill="{&#34;type&#34;:&#34;GRADIENT_DIAMOND&#34;,&#34;stops&#34;:[{&#34;color&#34;:{&#34;r&#34;:0.96078431606292725,&#34;g&#34;:0.61960786581039429,&#34;b&#34;:0.043137256056070328,&#34;a&#34;:1.0},&#34;position&#34;:0.99999988079071045},{&#34;color&#34;:{&#34;r&#34;:0.89803922176361084,&#34;g&#34;:0.90588235855102539,&#34;b&#34;:0.92156863212585449,&#34;a&#34;:1.0},&#34;position&#34;:1.0}],&#34;stopsVar&#34;:[{&#34;color&#34;:{&#34;r&#34;:0.96078431606292725,&#34;g&#34;:0.61960786581039429,&#34;b&#34;:0.043137256056070328,&#34;a&#34;:1.0},&#34;position&#34;:0.99999988079071045},{&#34;color&#34;:{&#34;r&#34;:0.89803922176361084,&#34;g&#34;:0.90588235855102539,&#34;b&#34;:0.92156863212585449,&#34;a&#34;:1.0},&#34;position&#34;:1.0}],&#34;transform&#34;:{&#34;m00&#34;:194.50,&#34;m01&#34;:0.0,&#34;m02&#34;:25.750,&#34;m10&#34;:0.0,&#34;m11&#34;:84.0,&#34;m12&#34;:171.0},&#34;opacity&#34;:1.0,&#34;blendMode&#34;:&#34;NORMAL&#34;,&#34;visible&#34;:true}" mask="url(#path-19-inside-1_23_244)"/>
<g id="Icon">
<rect x="147" y="193" width="40" height="40" rx="10" fill="#FFDB43" fill-opacity="0.1"/>
<g id="Component 1_2">
<path id="Vector_3" d="M167 206C166.081 206 165.17 206.181 164.321 206.533C163.472 206.885 162.7 207.4 162.05 208.05C161.4 208.7 160.885 209.472 160.533 210.321C160.181 211.17 160 212.081 160 213C160 213.919 160.181 214.83 160.533 215.679C160.885 216.528 161.4 217.3 162.05 217.95C162.7 218.6 163.472 219.115 164.321 219.467C165.17 219.819 166.081 220 167 220C168.857 220 170.637 219.263 171.95 217.95C173.263 216.637 174 214.857 174 213C174 211.143 173.263 209.363 171.95 208.05C170.637 206.737 168.857 206 167 206Z" stroke="#F59E0B" stroke-width="1.5"/>
<path id="Vector_4" d="M167 210V213.5M167 216H167.01" stroke="#F59E0B" stroke-width="1.8" stroke-linecap="round"/>
</g>
</g>
<g id="Info text">
<g id="Header">
<text id="First time here? Let&#226;&#128;&#153;s get you set up" fill="#111827" style="white-space: pre" xml:space="preserve" font-family="Inter" font-size="18" font-weight="bold" letter-spacing="0px"><tspan x="203" y="207.045">First time here? Let&#x2019;s get you set up</tspan></text>
</g>
<g id="sub text">
<text id="Please complete the onboarding below to get started &#226;&#128;&#148; it takes less than 5 minutes." fill="#6B7280" style="white-space: pre" xml:space="preserve" font-family="Inter" font-size="14" font-weight="500" letter-spacing="0px"><tspan x="203" y="232.091">Please complete the onboarding below to get started &#x2014; it takes less than 5 minutes.</tspan></text>
</g>
</g>
</g>
<g id="Input field container">
<g id="Compulsory input">
<g id="Input- row 1">
<g id="Text input">
<g id="Label">
<g id="First name*">
<text fill="#111827" style="white-space: pre" xml:space="preserve" font-family="Inter" font-size="14" font-weight="bold" letter-spacing="0px"><tspan x="123" y="293.182">Company name</tspan></text>
<text fill="#EF4444" style="white-space: pre" xml:space="preserve" font-family="Inter" font-size="14" font-weight="bold" letter-spacing="0px"><tspan x="229.709" y="293.182">*</tspan></text>
</g>
</g>
<g id="input field">
<mask id="path-27-inside-2_23_244" fill="white">
<path d="M123 312C123 306.477 127.477 302 133 302H492C497.523 302 502 306.477 502 312V340C502 345.523 497.523 350 492 350H133C127.477 350 123 345.523 123 340V312Z"/>
</mask>
<path d="M123 312C123 306.477 127.477 302 133 302H492C497.523 302 502 306.477 502 312V340C502 345.523 497.523 350 492 350H133C127.477 350 123 345.523 123 340V312Z" fill="white"/>
<path d="M133 302V303H492V302V301H133V302ZM502 312H501V340H502H503V312H502ZM492 350V349H133V350V351H492V350ZM123 340H124V312H123H122V340H123ZM133 350V349C128.029 349 124 344.971 124 340H123H122C122 346.075 126.925 351 133 351V350ZM502 340H501C501 344.971 496.971 349 492 349V350V351C498.075 351 503 346.075 503 340H502ZM492 302V303C496.971 303 501 307.029 501 312H502H503C503 305.925 498.075 301 492 301V302ZM133 302V301C126.925 301 122 305.925 122 312H123H124C124 307.029 128.029 303 133 303V302Z" fill="#E5E7EB" mask="url(#path-27-inside-2_23_244)"/>
<g id="Placeholder container" clip-path="url(#clip1_23_244)">
<text id="Enter first name" fill="#9CA3AF" style="white-space: pre" xml:space="preserve" font-family="Inter" font-size="14" letter-spacing="0px"><tspan x="138.5" y="331.091">Enter company name</tspan></text>
</g>
</g>
</g>
<g id="Select">
<g id="div_3">
<g id="Country">
<text fill="#111827" style="white-space: pre" xml:space="preserve" font-family="Inter" font-size="14" font-weight="bold" letter-spacing="0px"><tspan x="522" y="293.182">Country</tspan></text>
<text fill="#EF4444" style="white-space: pre" xml:space="preserve" font-family="Inter" font-size="14" font-weight="bold" letter-spacing="0px"><tspan x="578.137" y="293.182">*</tspan></text>
</g>
</g>
<g id="div_4">
<mask id="path-31-inside-3_23_244" fill="white">
<path d="M522 312C522 306.477 526.477 302 532 302H891C896.523 302 901 306.477 901 312V340C901 345.523 896.523 350 891 350H532C526.477 350 522 345.523 522 340V312Z"/>
</mask>
<path d="M522 312C522 306.477 526.477 302 532 302H891C896.523 302 901 306.477 901 312V340C901 345.523 896.523 350 891 350H532C526.477 350 522 345.523 522 340V312Z" fill="white"/>
<path d="M532 302V303H891V302V301H532V302ZM901 312H900V340H901H902V312H901ZM891 350V349H532V350V351H891V350ZM522 340H523V312H522H521V340H522ZM532 350V349C527.029 349 523 344.971 523 340H522H521C521 346.075 525.925 351 532 351V350ZM901 340H900C900 344.971 895.971 349 891 349V350V351C897.075 351 902 346.075 902 340H901ZM891 302V303C895.971 303 900 307.029 900 312H901H902C902 305.925 897.075 301 891 301V302ZM532 302V301C525.925 301 521 305.925 521 312H522H523C523 307.029 527.029 303 532 303V302Z" fill="#E5E7EB" mask="url(#path-31-inside-3_23_244)"/>
<text id="Select country" fill="#9CA3AF" style="white-space: pre" xml:space="preserve" font-family="Inter" font-size="14" letter-spacing="0px"><tspan x="537.5" y="331.091">Select country</tspan></text>
<g id="Icon_2" clip-path="url(#clip2_23_244)">
<path id="Vector_5" d="M876.5 324L880.5 328L884.5 324" stroke="#9CA3AF" stroke-width="1.5" stroke-linecap="round" stroke-linejoin="round"/>
</g>
</g>
</g>
</g>
<g id="Input row 2">
<g id="Text input_2">
<g id="Label_2">
<g id="First name*_2">
<text fill="#111827" style="white-space: pre" xml:space="preserve" font-family="Inter" font-size="14" font-weight="bold" letter-spacing="0px"><tspan x="123" y="384.182">City</tspan></text>
<text fill="#EF4444" style="white-space: pre" xml:space="preserve" font-family="Inter" font-size="14" font-weight="bold" letter-spacing="0px"><tspan x="150.986" y="384.182">*</tspan></text>
</g>
</g>
<g id="input field_2">
<mask id="path-36-inside-4_23_244" fill="white">
<path d="M123 403C123 397.477 127.477 393 133 393H492C497.523 393 502 397.477 502 403V431C502 436.523 497.523 441 492 441H133C127.477 441 123 436.523 123 431V403Z"/>
</mask>
<path d="M123 403C123 397.477 127.477 393 133 393H492C497.523 393 502 397.477 502 403V431C502 436.523 497.523 441 492 441H133C127.477 441 123 436.523 123 431V403Z" fill="white"/>
<path d="M133 393V394H492V393V392H133V393ZM502 403H501V431H502H503V403H502ZM492 441V440H133V441V442H492V441ZM123 431H124V403H123H122V431H123ZM133 441V440C128.029 440 124 435.971 124 431H123H122C122 437.075 126.925 442 133 442V441ZM502 431H501C501 435.971 496.971 440 492 440V441V442C498.075 442 503 437.075 503 431H502ZM492 393V394C496.971 394 501 398.029 501 403H502H503C503 396.925 498.075 392 492 392V393ZM133 393V392C126.925 392 122 396.925 122 403H123H124C124 398.029 128.029 394 133 394V393Z" fill="#E5E7EB" mask="url(#path-36-inside-4_23_244)"/>
<g id="Placeholder container_2" clip-path="url(#clip3_23_244)">
<text id="Enter first name_2" fill="#9CA3AF" style="white-space: pre" xml:space="preserve" font-family="Inter" font-size="14" letter-spacing="0px"><tspan x="138.5" y="422.091">Start typing to search</tspan></text>
</g>
</g>
</g>
<g id="Text input_3">
<g id="Label_3">
<g id="First name*_3">
<text fill="#111827" style="white-space: pre" xml:space="preserve" font-family="Inter" font-size="14" font-weight="bold" letter-spacing="0px"><tspan x="522" y="384.182">Address</tspan></text>
<text fill="#EF4444" style="white-space: pre" xml:space="preserve" font-family="Inter" font-size="14" font-weight="bold" letter-spacing="0px"><tspan x="579.381" y="384.182">*</tspan></text>
</g>
</g>
<g id="input field_3">
<mask id="path-40-inside-5_23_244" fill="white">
<path d="M522 403C522 397.477 526.477 393 532 393H891C896.523 393 901 397.477 901 403V431C901 436.523 896.523 441 891 441H532C526.477 441 522 436.523 522 431V403Z"/>
</mask>
<path d="M522 403C522 397.477 526.477 393 532 393H891C896.523 393 901 397.477 901 403V431C901 436.523 896.523 441 891 441H532C526.477 441 522 436.523 522 431V403Z" fill="white"/>
<path d="M532 393V394H891V393V392H532V393ZM901 403H900V431H901H902V403H901ZM891 441V440H532V441V442H891V441ZM522 431H523V403H522H521V431H522ZM532 441V440C527.029 440 523 435.971 523 431H522H521C521 437.075 525.925 442 532 442V441ZM901 431H900C900 435.971 895.971 440 891 440V441V442C897.075 442 902 437.075 902 431H901ZM891 393V394C895.971 394 900 398.029 900 403H901H902C902 396.925 897.075 392 891 392V393ZM532 393V392C525.925 392 521 396.925 521 403H522H523C523 398.029 527.029 394 532 394V393Z" fill="#E5E7EB" mask="url(#path-40-inside-5_23_244)"/>
<g id="Placeholder container_3" clip-path="url(#clip4_23_244)">
<text id="Enter first name_3" fill="#9CA3AF" style="white-space: pre" xml:space="preserve" font-family="Inter" font-size="14" letter-spacing="0px"><tspan x="537.5" y="422.091">Street address</tspan></text>
</g>
</g>
</g>
</g>
<g id="Input row 3">
<g id="Text input_4">
<g id="Label_4">
<g id="First name*_4">
<text fill="#111827" style="white-space: pre" xml:space="preserve" font-family="Inter" font-size="14" font-weight="bold" letter-spacing="0px"><tspan x="123" y="475.182">Suburb</tspan></text>
<text fill="#EF4444" style="white-space: pre" xml:space="preserve" font-family="Inter" font-size="14" font-weight="bold" letter-spacing="0px"><tspan x="173.121" y="475.182">*</tspan></text>
</g>
</g>
<g id="input field_4">
<mask id="path-44-inside-6_23_244" fill="white">
<path d="M123 494C123 488.477 127.477 484 133 484H492C497.523 484 502 488.477 502 494V522C502 527.523 497.523 532 492 532H133C127.477 532 123 527.523 123 522V494Z"/>
</mask>
<path d="M123 494C123 488.477 127.477 484 133 484H492C497.523 484 502 488.477 502 494V522C502 527.523 497.523 532 492 532H133C127.477 532 123 527.523 123 522V494Z" fill="white"/>
<path d="M133 484V485H492V484V483H133V484ZM502 494H501V522H502H503V494H502ZM492 532V531H133V532V533H492V532ZM123 522H124V494H123H122V522H123ZM133 532V531C128.029 531 124 526.971 124 522H123H122C122 528.075 126.925 533 133 533V532ZM502 522H501C501 526.971 496.971 531 492 531V532V533C498.075 533 503 528.075 503 522H502ZM492 484V485C496.971 485 501 489.029 501 494H502H503C503 487.925 498.075 483 492 483V484ZM133 484V483C126.925 483 122 487.925 122 494H123H124C124 489.029 128.029 485 133 485V484Z" fill="#E5E7EB" mask="url(#path-44-inside-6_23_244)"/>
<g id="Placeholder container_4" clip-path="url(#clip5_23_244)">
<text id="Enter first name_4" fill="#9CA3AF" style="white-space: pre" xml:space="preserve" font-family="Inter" font-size="14" letter-spacing="0px"><tspan x="138.5" y="513.091">Start typing to search</tspan></text>
</g>
</g>
</g>
<g id="Text input_5">
<g id="Label_5">
<g id="First name*_5">
<text fill="#111827" style="white-space: pre" xml:space="preserve" font-family="Inter" font-size="14" font-weight="bold" letter-spacing="0px"><tspan x="522" y="475.182">Postcode</tspan></text>
<text fill="#EF4444" style="white-space: pre" xml:space="preserve" font-family="Inter" font-size="14" font-weight="bold" letter-spacing="0px"><tspan x="586.818" y="475.182">*</tspan></text>
</g>
</g>
<g id="input field_5">
<mask id="path-48-inside-7_23_244" fill="white">
<path d="M522 494C522 488.477 526.477 484 532 484H891C896.523 484 901 488.477 901 494V522C901 527.523 896.523 532 891 532H532C526.477 532 522 527.523 522 522V494Z"/>
</mask>
<path d="M522 494C522 488.477 526.477 484 532 484H891C896.523 484 901 488.477 901 494V522C901 527.523 896.523 532 891 532H532C526.477 532 522 527.523 522 522V494Z" fill="white"/>
<path d="M532 484V485H891V484V483H532V484ZM901 494H900V522H901H902V494H901ZM891 532V531H532V532V533H891V532ZM522 522H523V494H522H521V522H522ZM532 532V531C527.029 531 523 526.971 523 522H522H521C521 528.075 525.925 533 532 533V532ZM901 522H900C900 526.971 895.971 531 891 531V532V533C897.075 533 902 528.075 902 522H901ZM891 484V485C895.971 485 900 489.029 900 494H901H902C902 487.925 897.075 483 891 483V484ZM532 484V483C525.925 483 521 487.925 521 494H522H523C523 489.029 527.029 485 532 485V484Z" fill="#E5E7EB" mask="url(#path-48-inside-7_23_244)"/>
<g id="Placeholder container_5" clip-path="url(#clip6_23_244)">
<text id="Enter first name_5" fill="#9CA3AF" style="white-space: pre" xml:space="preserve" font-family="Inter" font-size="14" letter-spacing="0px"><tspan x="537.5" y="513.091">e.g. 1010</tspan></text>
</g>
</g>
</g>
</g>
</g>
<g id="Optional input">
<g id="divider">
<mask id="path-51-inside-8_23_244" fill="white">
<path d="M123 572H901V575H123V572Z"/>
</mask>
<path d="M123 572V573H901V572V571H123V572Z" fill="#D3D6DA" mask="url(#path-51-inside-8_23_244)"/>
<g id="Tag">
<rect x="123" y="562" width="228" height="23" rx="4" fill="#E5E7EB"/>
<text id="Optional (SKIP If not needed)" fill="#9CA3AF" style="white-space: pre" xml:space="preserve" font-family="Inter" font-size="12" font-weight="600" letter-spacing="0.62px"><tspan x="131" y="577.864">OPTIONAL (SKIP IF NOT NEEDED)</tspan></text>
</g>
</g>
<g id="Input row 4">
<g id="Select_2">
<g id="div_5">
<text id="Country_2" fill="#111827" style="white-space: pre" xml:space="preserve" font-family="Inter" font-size="14" font-weight="bold" letter-spacing="0px"><tspan x="123" y="621.182">Industry</tspan></text>
</g>
<g id="div_6">
<mask id="path-56-inside-9_23_244" fill="white">
<path d="M123 640C123 634.477 127.477 630 133 630H492C497.523 630 502 634.477 502 640V668C502 673.523 497.523 678 492 678H133C127.477 678 123 673.523 123 668V640Z"/>
</mask>
<path d="M123 640C123 634.477 127.477 630 133 630H492C497.523 630 502 634.477 502 640V668C502 673.523 497.523 678 492 678H133C127.477 678 123 673.523 123 668V640Z" fill="white"/>
<path d="M133 630V631H492V630V629H133V630ZM502 640H501V668H502H503V640H502ZM492 678V677H133V678V679H492V678ZM123 668H124V640H123H122V668H123ZM133 678V677C128.029 677 124 672.971 124 668H123H122C122 674.075 126.925 679 133 679V678ZM502 668H501C501 672.971 496.971 677 492 677V678V679C498.075 679 503 674.075 503 668H502ZM492 630V631C496.971 631 501 635.029 501 640H502H503C503 633.925 498.075 629 492 629V630ZM133 630V629C126.925 629 122 633.925 122 640H123H124C124 635.029 128.029 631 133 631V630Z" fill="#E5E7EB" mask="url(#path-56-inside-9_23_244)"/>
<text id="Select country_2" fill="#9CA3AF" style="white-space: pre" xml:space="preserve" font-family="Inter" font-size="14" letter-spacing="0px"><tspan x="138.5" y="659.091">Select Industry</tspan></text>
<g id="Icon_3" clip-path="url(#clip7_23_244)">
<path id="Vector_6" d="M477.5 652L481.5 656L485.5 652" stroke="#9CA3AF" stroke-width="1.5" stroke-linecap="round" stroke-linejoin="round"/>
</g>
</g>
</g>
<g id="Select_3">
<g id="div_7">
<text id="Country_3" fill="#111827" style="white-space: pre" xml:space="preserve" font-family="Inter" font-size="14" font-weight="bold" letter-spacing="0px"><tspan x="522" y="621.182">Employees </tspan></text>
</g>
<g id="div_8">
<mask id="path-61-inside-10_23_244" fill="white">
<path d="M522 640C522 634.477 526.477 630 532 630H891C896.523 630 901 634.477 901 640V668C901 673.523 896.523 678 891 678H532C526.477 678 522 673.523 522 668V640Z"/>
</mask>
<path d="M522 640C522 634.477 526.477 630 532 630H891C896.523 630 901 634.477 901 640V668C901 673.523 896.523 678 891 678H532C526.477 678 522 673.523 522 668V640Z" fill="white"/>
<path d="M532 630V631H891V630V629H532V630ZM901 640H900V668H901H902V640H901ZM891 678V677H532V678V679H891V678ZM522 668H523V640H522H521V668H522ZM532 678V677C527.029 677 523 672.971 523 668H522H521C521 674.075 525.925 679 532 679V678ZM901 668H900C900 672.971 895.971 677 891 677V678V679C897.075 679 902 674.075 902 668H901ZM891 630V631C895.971 631 900 635.029 900 640H901H902C902 633.925 897.075 629 891 629V630ZM532 630V629C525.925 629 521 633.925 521 640H522H523C523 635.029 527.029 631 532 631V630Z" fill="#E5E7EB" mask="url(#path-61-inside-10_23_244)"/>
<text id="Select country_3" fill="#9CA3AF" style="white-space: pre" xml:space="preserve" font-family="Inter" font-size="14" letter-spacing="0px"><tspan x="537.5" y="659.091">Select range</tspan></text>
<g id="Icon_4" clip-path="url(#clip8_23_244)">
<path id="Vector_7" d="M876.5 652L880.5 656L884.5 652" stroke="#9CA3AF" stroke-width="1.5" stroke-linecap="round" stroke-linejoin="round"/>
</g>
</g>
</g>
</g>
</g>
</g>
</g>
</g>
<g id="Nav bar ">
<mask id="path-65-inside-11_23_244" fill="white">
<path d="M0 0H1024V64H0V0Z"/>
</mask>
<path d="M0 0H1024V64H0V0Z" fill="white"/>
<path d="M1024 64V63H0V64V65H1024V64Z" fill="#E5E7EB" mask="url(#path-65-inside-11_23_244)"/>
<g id="Company logo">
<g id="Vector_8">
<path d="M53.6692 24.0708C53.3248 24.2975 53.0381 24.6025 52.832 24.9612C52.626 25.3199 52.5063 25.7223 52.4828 26.1361V28.488C52.5063 28.9018 52.626 29.3042 52.832 29.6629C53.0381 30.0216 53.3248 30.3266 53.6692 30.5533L56.124 32.0111C56.775 32.3902 57.3103 32.0792 57.3103 31.3211V23.3516C57.3103 22.5935 56.775 22.2826 56.124 22.6616L53.6692 24.0708Z" fill="#032461"/>
<path d="M53.4134 31.0629C53.057 30.8841 52.6632 30.7909 52.2638 30.7909C51.8644 30.7909 51.4706 30.8841 51.1141 31.0629L49.152 32.1783C48.8177 32.395 48.5392 32.6867 48.3391 33.0297C48.1391 33.3727 48.0229 33.7575 48 34.1532V36.8856C48 37.6105 48.5198 37.9079 49.152 37.5455L55.8017 33.735C56.4339 33.3725 56.4339 32.7823 55.8017 32.4199L53.4134 31.0629Z" fill="#032461"/>
<path d="M62.3309 24.0708C62.6752 24.2975 62.9619 24.6025 63.168 24.9612C63.374 25.3199 63.4937 25.7223 63.5172 26.1361V28.488C63.4937 28.9018 63.374 29.3042 63.168 29.6629C62.9619 30.0216 62.6752 30.3266 62.3309 30.5533L59.8712 32.0111C59.2202 32.3902 58.6897 32.0792 58.6897 31.3211V23.3516C58.6897 22.5935 59.2202 22.2826 59.8712 22.6616L62.3309 24.0708Z" fill="#032461"/>
<path d="M62.3627 31.0629C62.7342 30.8841 63.1447 30.7909 63.5609 30.7909C63.9772 30.7909 64.3877 30.8841 64.7592 31.0629L66.8042 32.1783C67.1521 32.3953 67.4415 32.6871 67.6492 33.0301C67.8569 33.3731 67.9771 33.7578 68 34.1532V36.8856C68 37.6105 67.4631 37.9079 66.8042 37.5455L59.8735 33.735C59.2146 33.3725 59.2146 32.7823 59.8735 32.4199L62.3627 31.0629Z" fill="#032461"/>
<path d="M52.2434 41.2283C52.6 41.4069 52.994 41.5 53.3937 41.5C53.7933 41.5 54.1873 41.4069 54.544 41.2283L56.5072 40.1099C56.8413 39.8922 57.1191 39.5999 57.3185 39.2566C57.5178 38.9132 57.6331 38.5284 57.6552 38.133V35.4042C57.6552 34.6802 57.1398 34.3833 56.5072 34.7452L49.8537 38.5506C49.2212 38.9126 49.2212 39.502 49.8537 39.8639L52.2434 41.2283Z" fill="#032461"/>
<path d="M58 38.1352C58.0233 38.5297 58.1437 38.9135 58.3513 39.2558C58.559 39.5981 58.8482 39.8893 59.1958 40.1062L61.2409 41.2285C61.6123 41.407 62.0228 41.5 62.4391 41.5C62.8554 41.5 63.2658 41.407 63.6373 41.2285L66.1265 39.8604C66.7854 39.4987 66.7854 38.9097 66.1265 38.548L59.1958 34.7451C58.5369 34.3834 58 34.6802 58 35.4037V38.1352Z" fill="#032461"/>
</g>
<g id="Name">
<text id="Nexus Technologies" fill="#111827" style="white-space: pre" xml:space="preserve" font-family="Inter" font-size="12" font-weight="bold" letter-spacing="0px"><tspan x="75.4399" y="36.3636">Nexus Technologies</tspan></text>
</g>
</g>
<g id="ADA logo + text">
<g id="Text">
<text id="Contractor check-in" fill="#111827" style="white-space: pre" xml:space="preserve" font-family="Inter" font-size="14" font-weight="bold" letter-spacing="0em"><tspan x="472.72" y="37.0909">Contractor check-in</tspan></text>
</g>
</g>
<g id="Date &#38; time">
<g id="Date">
<text id="16 March, Monday" fill="#111827" style="white-space: pre" xml:space="preserve" font-family="Inter" font-size="6.8" letter-spacing="0em"><tspan x="890.663" y="30.4727">16 March,&#10;</tspan><tspan x="896.208" y="38.4727">Monday</tspan></text>
</g>
<path id="divider_2" d="M930 24.25V39.75" stroke="#E5E7EB" stroke-linecap="round"/>
<g id="Time">
<text id="09:57" fill="#111827" style="white-space: pre" xml:space="preserve" font-family="Inter" font-size="14" font-weight="bold" letter-spacing="-0.62px"><tspan x="938.08" y="36.7709">09:57</tspan></text>
</g>
</g>
</g>
<g id="CTA container">
<rect x="0.5" y="713.5" width="1023" height="71" fill="white"/>
<rect x="0.5" y="713.5" width="1023" height="71" stroke="#E5E7EB"/>
<g id="Secondary button">
<mask id="path-74-inside-12_23_244" fill="white">
<path d="M48 737C48 731.477 52.4772 727 58 727H153C158.523 727 163 731.477 163 737V761C163 766.523 158.523 771 153 771H58C52.4772 771 48 766.523 48 761V737Z"/>
</mask>
<path d="M58 727V728H153V727V726H58V727ZM163 737H162V761H163H164V737H163ZM153 771V770H58V771V772H153V771ZM48 761H49V737H48H47V761H48ZM58 771V770C53.0294 770 49 765.971 49 761H48H47C47 767.075 51.9249 772 58 772V771ZM163 761H162C162 765.971 157.971 770 153 770V771V772C159.075 772 164 767.075 164 761H163ZM153 727V728C157.971 728 162 732.029 162 737H163H164C164 730.925 159.075 726 153 726V727ZM58 727V726C51.9249 726 47 730.925 47 737H48H49C49 732.029 53.0294 728 58 728V727Z" fill="#E5E7EB" mask="url(#path-74-inside-12_23_244)"/>
<text id="Go Back" fill="#6B7280" style="white-space: pre" xml:space="preserve" font-family="Inter" font-size="16" font-weight="600" letter-spacing="0px"><tspan x="73.5859" y="754.818">Go Back</tspan></text>
</g>
<g id="button">
<rect x="735" y="727" width="241" height="44" rx="10" fill="#0846C3"/>
<text id="Next (Personal details)" fill="white" style="white-space: pre" xml:space="preserve" font-family="Inter" font-size="16" font-weight="600" letter-spacing="0px"><tspan x="767.328" y="754.818">Next (Personal details)</tspan></text>
</g>
</g>
</g>
</g>
<defs>
<clipPath id="paint0_diamond_23_244_clip_path"><path d="M119 169.5H889C896.456 169.5 902.5 175.544 902.5 183H899.5C899.5 177.201 894.799 172.5 889 172.5H127L119 169.5ZM902.5 243C902.5 250.456 896.456 256.5 889 256.5H119L127 253.5H889C894.799 253.5 899.5 248.799 899.5 243H902.5ZM119 256.5V169.5L127 172.5V253.5L119 256.5ZM889 169.5C896.456 169.5 902.5 175.544 902.5 183V243C902.5 250.456 896.456 256.5 889 256.5V253.5C894.799 253.5 899.5 248.799 899.5 243V183C899.5 177.201 894.799 172.5 889 172.5V169.5Z" mask="url(#path-19-inside-1_23_244)"/></clipPath><linearGradient id="paint0_diamond_23_244" x1="0" y1="0" x2="500" y2="500" gradientUnits="userSpaceOnUse">
<stop offset="1" stop-color="#F59E0B"/>
<stop offset="1" stop-color="#E5E7EB"/>
</linearGradient>
<clipPath id="clip0_23_244">
<rect width="1024" height="785" fill="white"/>
</clipPath>
<clipPath id="clip1_23_244">
<rect width="348" height="21" fill="white" transform="translate(138.5 315.5)"/>
</clipPath>
<clipPath id="clip2_23_244">
<rect width="10" height="6" fill="white" transform="translate(875.5 323)"/>
</clipPath>
<clipPath id="clip3_23_244">
<rect width="348" height="21" fill="white" transform="translate(138.5 406.5)"/>
</clipPath>
<clipPath id="clip4_23_244">
<rect width="348" height="21" fill="white" transform="translate(537.5 406.5)"/>
</clipPath>
<clipPath id="clip5_23_244">
<rect width="348" height="21" fill="white" transform="translate(138.5 497.5)"/>
</clipPath>
<clipPath id="clip6_23_244">
<rect width="348" height="21" fill="white" transform="translate(537.5 497.5)"/>
</clipPath>
<clipPath id="clip7_23_244">
<rect width="10" height="6" fill="white" transform="translate(476.5 651)"/>
</clipPath>
<clipPath id="clip8_23_244">
<rect width="10" height="6" fill="white" transform="translate(875.5 651)"/>
</clipPath>
</defs>
</svg>
