<svg width="1024" height="768" viewBox="0 0 1024 768" fill="none" xmlns="http://www.w3.org/2000/svg">
<rect width="1024" height="768" fill="#1E1E1E"/>
<g id="New Contractors">
<path d="M-5524 -234C-5524 -235.105 -5523.1 -236 -5522 -236H4716C4717.1 -236 4718 -235.105 4718 -234V1333C4718 1334.1 4717.1 1335 4716 1335H-5522C-5523.1 1335 -5524 1334.1 -5524 1333V-234Z" fill="#37393C"/>
<path d="M-5522 -236V-235H4716V-236V-237H-5522V-236ZM4718 -234H4717V1333H4718H4719V-234H4718ZM4716 1335V1334H-5522V1335V1336H4716V1335ZM-5524 1333H-5523V-234H-5524H-5525V1333H-5524ZM-5522 1335V1334C-5522.55 1334 -5523 1333.55 -5523 1333H-5524H-5525C-5525 1334.66 -5523.66 1336 -5522 1336V1335ZM4718 1333H4717C4717 1333.55 4716.55 1334 4716 1334V1335V1336C4717.66 1336 4719 1334.66 4719 1333H4718ZM4716 -236V-235C4716.55 -235 4717 -234.552 4717 -234H4718H4719C4719 -235.657 4717.66 -237 4716 -237V-236ZM-5522 -236V-237C-5523.66 -237 -5525 -235.657 -5525 -234H-5524H-5523C-5523 -234.552 -5522.55 -235 -5522 -235V-236Z" fill="white" fill-opacity="0.1"/>
<g id="Contractor - Onboarding - step 2" clip-path="url(#clip0_23_244)">
<rect width="1024" height="768" fill="#F3F4F6"/>
<g id="Progress indicator + input field container">
<g id="Progress indicator container">
<rect x="0.5" y="64.5" width="1023" height="74" stroke="#E5E7EB"/>
<g id="Progress bar">
<rect width="1021" height="4" transform="translate(1.5 65.5)" fill="#E5E7EB"/>
<path id="Progress line" d="M1 65H671C672.105 65 673 65.8954 673 67C673 68.1046 672.105 69 671 69H1V65Z" fill="#0846C3"/>
</g>
<g id="Progress container">
<rect width="1021" height="68" transform="translate(1.5 69.5)" fill="white"/>
<g id="Upcoming">
<g id="div">
<rect x="141" y="92.5" width="22" height="22" rx="11" fill="#0846C3"/>
<g id="Component 1">
<path id="Vector" d="M148.792 103.5L151.083 105.792L155.208 101.208" stroke="white" stroke-width="1.375" stroke-linecap="round" stroke-linejoin="round"/>
</g>
</g>
<g id="span">
<text id="Company details" fill="#0846C3" style="white-space: pre" xml:space="preserve" font-family="Inter" font-size="16" font-weight="600" letter-spacing="0px"><tspan x="171" y="109.318">Company details</tspan></text>
</g>
</g>
<g id="Component 1_2">
<path id="Vector_2" d="M370.2 99L374.7 103.5L370.2 108" stroke="#0846C3" stroke-width="2" stroke-linecap="round" stroke-linejoin="round"/>
</g>
<g id="Active">
<rect x="429" y="81.5" width="182" height="44" rx="22" fill="#0846C3" fill-opacity="0.1"/>
<g id="label">
<rect x="443" y="92.5" width="22" height="22" rx="11" fill="#0846C3"/>
<g id="number">
<text id="2" fill="#EBF1FC" style="white-space: pre" xml:space="preserve" font-family="Inter" font-size="12" font-weight="bold" letter-spacing="0px"><tspan x="450" y="107.864">2</tspan></text>
</g>
</g>
<g id="Progress text">
<text id="Personal details" fill="#032461" style="white-space: pre" xml:space="preserve" font-family="Inter" font-size="16" font-weight="600" letter-spacing="0px"><tspan x="473" y="109.318">Personal details</tspan></text>
</g>
</g>
<g id="Component 2">
<path id="Vector_3" d="M666.2 99L670.7 103.5L666.2 108" stroke="#9CA3AF" stroke-width="2" stroke-linecap="round" stroke-linejoin="round"/>
</g>
<g id="Upcoming_2">
<g id="div_2">
<rect x="739" y="92.5" width="22" height="22" rx="11" fill="#E5E7EB"/>
<g id="span_2">
<text id="3" fill="#9CA3AF" style="white-space: pre" xml:space="preserve" font-family="Inter" font-size="12" font-weight="bold" letter-spacing="0px"><tspan x="746" y="107.864">3</tspan></text>
</g>
</g>
<g id="span_3">
<text id="Safety training" fill="#9CA3AF" style="white-space: pre" xml:space="preserve" font-family="Inter" font-size="16" font-weight="600" letter-spacing="0px"><tspan x="769" y="109.318">Safety training</tspan></text>
</g>
</g>
</g>
</g>
<g id="Input field container + info card">
<g id="Input field container">
<g id="Compulsory input">
<g id="Input- row 1">
<g id="Text input">
<g id="Label">
<g id="First name*">
<text fill="#111827" style="white-space: pre" xml:space="preserve" font-family="Inter" font-size="14" font-weight="bold" letter-spacing="0px"><tspan x="123" y="185.182">First name</tspan></text>
<text fill="#EF4444" style="white-space: pre" xml:space="preserve" font-family="Inter" font-size="14" font-weight="bold" letter-spacing="0px"><tspan x="195.242" y="185.182">*</tspan></text>
</g>
</g>
<g id="input field">
<mask id="path-20-inside-1_23_244" fill="white">
<path d="M123 204C123 198.477 127.477 194 133 194H492C497.523 194 502 198.477 502 204V232C502 237.523 497.523 242 492 242H133C127.477 242 123 237.523 123 232V204Z"/>
</mask>
<path d="M123 204C123 198.477 127.477 194 133 194H492C497.523 194 502 198.477 502 204V232C502 237.523 497.523 242 492 242H133C127.477 242 123 237.523 123 232V204Z" fill="white"/>
<path d="M133 194V195H492V194V193H133V194ZM502 204H501V232H502H503V204H502ZM492 242V241H133V242V243H492V242ZM123 232H124V204H123H122V232H123ZM133 242V241C128.029 241 124 236.971 124 232H123H122C122 238.075 126.925 243 133 243V242ZM502 232H501C501 236.971 496.971 241 492 241V242V243C498.075 243 503 238.075 503 232H502ZM492 194V195C496.971 195 501 199.029 501 204H502H503C503 197.925 498.075 193 492 193V194ZM133 194V193C126.925 193 122 197.925 122 204H123H124C124 199.029 128.029 195 133 195V194Z" fill="#E5E7EB" mask="url(#path-20-inside-1_23_244)"/>
<g id="Placeholder container" clip-path="url(#clip1_23_244)">
<text id="Enter first name" fill="#9CA3AF" style="white-space: pre" xml:space="preserve" font-family="Inter" font-size="14" letter-spacing="0px"><tspan x="138.5" y="223.091">Enter first name</tspan></text>
</g>
</g>
</g>
<g id="Text input_2">
<g id="Label_2">
<g id="First name*_2">
<text fill="#111827" style="white-space: pre" xml:space="preserve" font-family="Inter" font-size="14" font-weight="bold" letter-spacing="0px"><tspan x="522" y="185.182">Last name</tspan></text>
<text fill="#EF4444" style="white-space: pre" xml:space="preserve" font-family="Inter" font-size="14" font-weight="bold" letter-spacing="0px"><tspan x="592.574" y="185.182">*</tspan></text>
</g>
</g>
<g id="input field_2">
<mask id="path-24-inside-2_23_244" fill="white">
<path d="M522 204C522 198.477 526.477 194 532 194H891C896.523 194 901 198.477 901 204V232C901 237.523 896.523 242 891 242H532C526.477 242 522 237.523 522 232V204Z"/>
</mask>
<path d="M522 204C522 198.477 526.477 194 532 194H891C896.523 194 901 198.477 901 204V232C901 237.523 896.523 242 891 242H532C526.477 242 522 237.523 522 232V204Z" fill="white"/>
<path d="M532 194V195H891V194V193H532V194ZM901 204H900V232H901H902V204H901ZM891 242V241H532V242V243H891V242ZM522 232H523V204H522H521V232H522ZM532 242V241C527.029 241 523 236.971 523 232H522H521C521 238.075 525.925 243 532 243V242ZM901 232H900C900 236.971 895.971 241 891 241V242V243C897.075 243 902 238.075 902 232H901ZM891 194V195C895.971 195 900 199.029 900 204H901H902C902 197.925 897.075 193 891 193V194ZM532 194V193C525.925 193 521 197.925 521 204H522H523C523 199.029 527.029 195 532 195V194Z" fill="#E5E7EB" mask="url(#path-24-inside-2_23_244)"/>
<g id="Placeholder container_2" clip-path="url(#clip2_23_244)">
<text id="Enter first name_2" fill="#9CA3AF" style="white-space: pre" xml:space="preserve" font-family="Inter" font-size="14" letter-spacing="0px"><tspan x="537.5" y="223.091">Enter first name</tspan></text>
</g>
</g>
</g>
</g>
</g>
<g id="Optional input">
<g id="divider">
<mask id="path-27-inside-3_23_244" fill="white">
<path d="M123 290H901V293H123V290Z"/>
</mask>
<path d="M123 290V291H901V290V289H123V290Z" fill="#D3D6DA" mask="url(#path-27-inside-3_23_244)"/>
<g id="Tag">
<rect x="123" y="280" width="228" height="23" rx="4" fill="#D1D5DB"/>
<text id="Optional (SKIP If not needed)" fill="#4B5563" style="white-space: pre" xml:space="preserve" font-family="Inter" font-size="12" font-weight="600" letter-spacing="0.62px"><tspan x="131" y="295.864">OPTIONAL (SKIP IF NOT NEEDED)</tspan></text>
</g>
</g>
<g id="Inputs">
<g id="Input row 2">
<g id="Text input_3">
<g id="div_3">
<g id="label_2">
<text id="Mobile number" fill="#111827" style="white-space: pre" xml:space="preserve" font-family="Inter" font-size="14" font-weight="bold" letter-spacing="0px"><tspan x="123" y="335.182">Mobile number</tspan></text>
</g>
</g>
<g id="input">
<mask id="path-32-inside-4_23_244" fill="white">
<path d="M123 350C123 344.477 127.477 340 133 340H492C497.523 340 502 344.477 502 350V378C502 383.523 497.523 388 492 388H133C127.477 388 123 383.523 123 378V350Z"/>
</mask>
<path d="M123 350C123 344.477 127.477 340 133 340H492C497.523 340 502 344.477 502 350V378C502 383.523 497.523 388 492 388H133C127.477 388 123 383.523 123 378V350Z" fill="white"/>
<path d="M133 340V341H492V340V339H133V340ZM502 350H501V378H502H503V350H502ZM492 388V387H133V388V389H492V388ZM123 378H124V350H123H122V378H123ZM133 388V387C128.029 387 124 382.971 124 378H123H122C122 384.075 126.925 389 133 389V388ZM502 378H501C501 382.971 496.971 387 492 387V388V389C498.075 389 503 384.075 503 378H502ZM492 340V341C496.971 341 501 345.029 501 350H502H503C503 343.925 498.075 339 492 339V340ZM133 340V339C126.925 339 122 343.925 122 350H123H124C124 345.029 128.029 341 133 341V340Z" fill="#E5E7EB" mask="url(#path-32-inside-4_23_244)"/>
<g id="input text" clip-path="url(#clip3_23_244)">
<text id="+64" fill="#9CA3AF" style="white-space: pre" xml:space="preserve" font-family="Inter" font-size="14" letter-spacing="0em"><tspan x="138.5" y="369.091">+64</tspan></text>
</g>
</g>
</g>
<g id="Text input_4">
<g id="div_4">
<g id="label_3">
<text id="Mobile number_2" fill="#111827" style="white-space: pre" xml:space="preserve" font-family="Inter" font-size="14" font-weight="bold" letter-spacing="0px"><tspan x="522" y="335.182">Role</tspan></text>
</g>
</g>
<g id="input_2">
<mask id="path-36-inside-5_23_244" fill="white">
<path d="M522 350C522 344.477 526.477 340 532 340H891C896.523 340 901 344.477 901 350V378C901 383.523 896.523 388 891 388H532C526.477 388 522 383.523 522 378V350Z"/>
</mask>
<path d="M522 350C522 344.477 526.477 340 532 340H891C896.523 340 901 344.477 901 350V378C901 383.523 896.523 388 891 388H532C526.477 388 522 383.523 522 378V350Z" fill="white"/>
<path d="M532 340V341H891V340V339H532V340ZM901 350H900V378H901H902V350H901ZM891 388V387H532V388V389H891V388ZM522 378H523V350H522H521V378H522ZM532 388V387C527.029 387 523 382.971 523 378H522H521C521 384.075 525.925 389 532 389V388ZM901 378H900C900 382.971 895.971 387 891 387V388V389C897.075 389 902 384.075 902 378H901ZM891 340V341C895.971 341 900 345.029 900 350H901H902C902 343.925 897.075 339 891 339V340ZM532 340V339C525.925 339 521 343.925 521 350H522H523C523 345.029 527.029 341 532 341V340Z" fill="#E5E7EB" mask="url(#path-36-inside-5_23_244)"/>
<g id="input text_2" clip-path="url(#clip4_23_244)">
<text id="+64_2" fill="#9CA3AF" style="white-space: pre" xml:space="preserve" font-family="Inter" font-size="14" letter-spacing="0em"><tspan x="537.5" y="369.091">+64</tspan></text>
</g>
</g>
</g>
</g>
<g id="Input row 3">
<g id="Text input_5">
<g id="div_5">
<g id="label_4">
<text id="Mobile number_3" fill="#111827" style="white-space: pre" xml:space="preserve" font-family="Inter" font-size="14" font-weight="bold" letter-spacing="0px"><tspan x="123" y="422.182">Host</tspan></text>
</g>
</g>
<g id="input_3">
<mask id="path-40-inside-6_23_244" fill="white">
<path d="M123 437C123 431.477 127.477 427 133 427H492C497.523 427 502 431.477 502 437V465C502 470.523 497.523 475 492 475H133C127.477 475 123 470.523 123 465V437Z"/>
</mask>
<path d="M123 437C123 431.477 127.477 427 133 427H492C497.523 427 502 431.477 502 437V465C502 470.523 497.523 475 492 475H133C127.477 475 123 470.523 123 465V437Z" fill="white"/>
<path d="M133 427V428H492V427V426H133V427ZM502 437H501V465H502H503V437H502ZM492 475V474H133V475V476H492V475ZM123 465H124V437H123H122V465H123ZM133 475V474C128.029 474 124 469.971 124 465H123H122C122 471.075 126.925 476 133 476V475ZM502 465H501C501 469.971 496.971 474 492 474V475V476C498.075 476 503 471.075 503 465H502ZM492 427V428C496.971 428 501 432.029 501 437H502H503C503 430.925 498.075 426 492 426V427ZM133 427V426C126.925 426 122 430.925 122 437H123H124C124 432.029 128.029 428 133 428V427Z" fill="#E5E7EB" mask="url(#path-40-inside-6_23_244)"/>
<g id="input text_3" clip-path="url(#clip5_23_244)">
<text id="+64_3" fill="#9CA3AF" style="white-space: pre" xml:space="preserve" font-family="Inter" font-size="14" letter-spacing="0em"><tspan x="138.5" y="456.091">Who are you visiting?</tspan></text>
</g>
</g>
</g>
<g id="Text input_6">
<g id="div_6">
<g id="label_5">
<text id="Mobile number_4" fill="#111827" style="white-space: pre" xml:space="preserve" font-family="Inter" font-size="14" font-weight="bold" letter-spacing="0px"><tspan x="522" y="422.182">Reason for visit</tspan></text>
</g>
</g>
<g id="input_4">
<mask id="path-44-inside-7_23_244" fill="white">
<path d="M522 437C522 431.477 526.477 427 532 427H891C896.523 427 901 431.477 901 437V465C901 470.523 896.523 475 891 475H532C526.477 475 522 470.523 522 465V437Z"/>
</mask>
<path d="M522 437C522 431.477 526.477 427 532 427H891C896.523 427 901 431.477 901 437V465C901 470.523 896.523 475 891 475H532C526.477 475 522 470.523 522 465V437Z" fill="white"/>
<path d="M532 427V428H891V427V426H532V427ZM901 437H900V465H901H902V437H901ZM891 475V474H532V475V476H891V475ZM522 465H523V437H522H521V465H522ZM532 475V474C527.029 474 523 469.971 523 465H522H521C521 471.075 525.925 476 532 476V475ZM901 465H900C900 469.971 895.971 474 891 474V475V476C897.075 476 902 471.075 902 465H901ZM891 427V428C895.971 428 900 432.029 900 437H901H902C902 430.925 897.075 426 891 426V427ZM532 427V426C525.925 426 521 430.925 521 437H522H523C523 432.029 527.029 428 532 428V427Z" fill="#E5E7EB" mask="url(#path-44-inside-7_23_244)"/>
<g id="input text_4" clip-path="url(#clip6_23_244)">
<text id="+64_4" fill="#9CA3AF" style="white-space: pre" xml:space="preserve" font-family="Inter" font-size="14" letter-spacing="0em"><tspan x="537.5" y="456.091">+64</tspan></text>
</g>
</g>
</g>
</g>
</g>
</g>
</g>
</g>
</g>
<g id="Nav bar ">
<mask id="path-47-inside-8_23_244" fill="white">
<path d="M0 0H1024V64H0V0Z"/>
</mask>
<path d="M0 0H1024V64H0V0Z" fill="white"/>
<path d="M1024 64V63H0V64V65H1024V64Z" fill="#E5E7EB" mask="url(#path-47-inside-8_23_244)"/>
<g id="Company logo">
<g id="Vector_4">
<path d="M53.6692 24.0708C53.3248 24.2975 53.0381 24.6025 52.832 24.9612C52.626 25.3199 52.5063 25.7223 52.4828 26.1361V28.488C52.5063 28.9018 52.626 29.3042 52.832 29.6629C53.0381 30.0216 53.3248 30.3266 53.6692 30.5533L56.124 32.0111C56.775 32.3902 57.3103 32.0792 57.3103 31.3211V23.3516C57.3103 22.5935 56.775 22.2826 56.124 22.6616L53.6692 24.0708Z" fill="#032461"/>
<path d="M53.4134 31.0629C53.057 30.8841 52.6632 30.7909 52.2638 30.7909C51.8644 30.7909 51.4706 30.8841 51.1141 31.0629L49.152 32.1783C48.8177 32.395 48.5392 32.6867 48.3391 33.0297C48.1391 33.3727 48.0229 33.7575 48 34.1532V36.8856C48 37.6105 48.5198 37.9079 49.152 37.5455L55.8017 33.735C56.4339 33.3725 56.4339 32.7823 55.8017 32.4199L53.4134 31.0629Z" fill="#032461"/>
<path d="M62.3309 24.0708C62.6752 24.2975 62.9619 24.6025 63.168 24.9612C63.374 25.3199 63.4937 25.7223 63.5172 26.1361V28.488C63.4937 28.9018 63.374 29.3042 63.168 29.6629C62.9619 30.0216 62.6752 30.3266 62.3309 30.5533L59.8712 32.0111C59.2202 32.3902 58.6897 32.0792 58.6897 31.3211V23.3516C58.6897 22.5935 59.2202 22.2826 59.8712 22.6616L62.3309 24.0708Z" fill="#032461"/>
<path d="M62.3627 31.0629C62.7342 30.8841 63.1447 30.7909 63.5609 30.7909C63.9772 30.7909 64.3877 30.8841 64.7592 31.0629L66.8042 32.1783C67.1521 32.3953 67.4415 32.6871 67.6492 33.0301C67.8569 33.3731 67.9771 33.7578 68 34.1532V36.8856C68 37.6105 67.4631 37.9079 66.8042 37.5455L59.8735 33.735C59.2146 33.3725 59.2146 32.7823 59.8735 32.4199L62.3627 31.0629Z" fill="#032461"/>
<path d="M52.2434 41.2283C52.6 41.4069 52.994 41.5 53.3937 41.5C53.7933 41.5 54.1873 41.4069 54.544 41.2283L56.5072 40.1099C56.8413 39.8922 57.1191 39.5999 57.3185 39.2566C57.5178 38.9132 57.6331 38.5284 57.6552 38.133V35.4042C57.6552 34.6802 57.1398 34.3833 56.5072 34.7452L49.8537 38.5506C49.2212 38.9126 49.2212 39.502 49.8537 39.8639L52.2434 41.2283Z" fill="#032461"/>
<path d="M58 38.1352C58.0233 38.5297 58.1437 38.9135 58.3513 39.2558C58.559 39.5981 58.8482 39.8893 59.1958 40.1062L61.2409 41.2285C61.6123 41.407 62.0228 41.5 62.4391 41.5C62.8554 41.5 63.2658 41.407 63.6373 41.2285L66.1265 39.8604C66.7854 39.4987 66.7854 38.9097 66.1265 38.548L59.1958 34.7451C58.5369 34.3834 58 34.6802 58 35.4037V38.1352Z" fill="#032461"/>
</g>
<g id="Name">
<text id="Nexus Technologies" fill="#111827" style="white-space: pre" xml:space="preserve" font-family="Inter" font-size="12" font-weight="bold" letter-spacing="0px"><tspan x="75.4399" y="36.3636">Nexus Technologies</tspan></text>
</g>
</g>
<g id="ADA logo + text">
<g id="Text">
<text id="Contractor check-in" fill="#111827" style="white-space: pre" xml:space="preserve" font-family="Inter" font-size="14" font-weight="bold" letter-spacing="0em"><tspan x="472.72" y="37.0909">Contractor check-in</tspan></text>
</g>
</g>
<g id="Date &#38; time">
<g id="Date">
<text id="16 March, Monday" fill="#111827" style="white-space: pre" xml:space="preserve" font-family="Inter" font-size="6.8" letter-spacing="0em"><tspan x="890.663" y="30.4727">16 March,&#10;</tspan><tspan x="896.208" y="38.4727">Monday</tspan></text>
</g>
<path id="divider_2" d="M930 24.25V39.75" stroke="#E5E7EB" stroke-linecap="round"/>
<g id="Time">
<text id="09:57" fill="#111827" style="white-space: pre" xml:space="preserve" font-family="Inter" font-size="14" font-weight="bold" letter-spacing="-0.62px"><tspan x="938.08" y="36.7709">09:57</tspan></text>
</g>
</g>
</g>
<g id="CTA container">
<rect x="0.5" y="696.5" width="1023" height="71" fill="white"/>
<rect x="0.5" y="696.5" width="1023" height="71" stroke="#E5E7EB"/>
<g id="Secondary button">
<mask id="path-56-inside-9_23_244" fill="white">
<path d="M48 720C48 714.477 52.4772 710 58 710H153C158.523 710 163 714.477 163 720V744C163 749.523 158.523 754 153 754H58C52.4772 754 48 749.523 48 744V720Z"/>
</mask>
<path d="M58 710V711H153V710V709H58V710ZM163 720H162V744H163H164V720H163ZM153 754V753H58V754V755H153V754ZM48 744H49V720H48H47V744H48ZM58 754V753C53.0294 753 49 748.971 49 744H48H47C47 750.075 51.9249 755 58 755V754ZM163 744H162C162 748.971 157.971 753 153 753V754V755C159.075 755 164 750.075 164 744H163ZM153 710V711C157.971 711 162 715.029 162 720H163H164C164 713.925 159.075 709 153 709V710ZM58 710V709C51.9249 709 47 713.925 47 720H48H49C49 715.029 53.0294 711 58 711V710Z" fill="#E5E7EB" mask="url(#path-56-inside-9_23_244)"/>
<text id="Go Back" fill="#6B7280" style="white-space: pre" xml:space="preserve" font-family="Inter" font-size="16" font-weight="600" letter-spacing="0px"><tspan x="73.5859" y="737.818">Go Back</tspan></text>
</g>
<g id="button">
<rect x="745" y="710" width="231" height="44" rx="10" fill="#0846C3"/>
<text id="Next (Safety training)" fill="white" style="white-space: pre" xml:space="preserve" font-family="Inter" font-size="16" font-weight="600" letter-spacing="0px"><tspan x="777.438" y="737.818">Next (Safety training)</tspan></text>
</g>
</g>
</g>
</g>
<defs>
<clipPath id="clip0_23_244">
<rect width="1024" height="768" fill="white"/>
</clipPath>
<clipPath id="clip1_23_244">
<rect width="348" height="21" fill="white" transform="translate(138.5 207.5)"/>
</clipPath>
<clipPath id="clip2_23_244">
<rect width="348" height="21" fill="white" transform="translate(537.5 207.5)"/>
</clipPath>
<clipPath id="clip3_23_244">
<rect width="348" height="17" fill="white" transform="translate(138.5 355.5)"/>
</clipPath>
<clipPath id="clip4_23_244">
<rect width="348" height="17" fill="white" transform="translate(537.5 355.5)"/>
</clipPath>
<clipPath id="clip5_23_244">
<rect width="348" height="17" fill="white" transform="translate(138.5 442.5)"/>
</clipPath>
<clipPath id="clip6_23_244">
<rect width="348" height="17" fill="white" transform="translate(537.5 442.5)"/>
</clipPath>
</defs>
</svg>
