<svg width="1024" height="768" viewBox="0 0 1024 768" fill="none" xmlns="http://www.w3.org/2000/svg">
<rect width="1024" height="768" fill="#1E1E1E"/>
<g id="New Contractors">
<path d="M-8177 -234C-8177 -235.105 -8176.1 -236 -8175 -236H2063C2064.1 -236 2065 -235.105 2065 -234V1333C2065 1334.1 2064.1 1335 2063 1335H-8175C-8176.1 1335 -8177 1334.1 -8177 1333V-234Z" fill="#37393C"/>
<path d="M-8175 -236V-235H2063V-236V-237H-8175V-236ZM2065 -234H2064V1333H2065H2066V-234H2065ZM2063 1335V1334H-8175V1335V1336H2063V1335ZM-8177 1333H-8176V-234H-8177H-8178V1333H-8177ZM-8175 1335V1334C-8175.55 1334 -8176 1333.55 -8176 1333H-8177H-8178C-8178 1334.66 -8176.66 1336 -8175 1336V1335ZM2065 1333H2064C2064 1333.55 2063.55 1334 2063 1334V1335V1336C2064.66 1336 2066 1334.66 2066 1333H2065ZM2063 -236V-235C2063.55 -235 2064 -234.552 2064 -234H2065H2066C2066 -235.657 2064.66 -237 2063 -237V-236ZM-8175 -236V-237C-8176.66 -237 -8178 -235.657 -8178 -234H-8177H-8176C-8176 -234.552 -8175.55 -235 -8175 -235V-236Z" fill="white" fill-opacity="0.1"/>
<g id="Returning contractor (incomplete onboarding) - Successful check-in" clip-path="url(#clip0_23_244)">
<rect width="1024" height="768" fill="#F3F4F6"/>
<g id="Nav bar ">
<mask id="path-3-inside-1_23_244" fill="white">
<path d="M0 0H1024V64H0V0Z"/>
</mask>
<path d="M0 0H1024V64H0V0Z" fill="white"/>
<path d="M1024 64V63H0V64V65H1024V64Z" fill="#E5E7EB" mask="url(#path-3-inside-1_23_244)"/>
<g id="Company logo">
<g id="Logo icon">
<rect x="48" y="20.8401" width="22.32" height="22.32" rx="4" fill="#0846C3" fill-opacity="0.1"/>
<g id="Frame">
<path id="Vector" d="M63.1501 29.5442H55.1681C54.6594 29.5442 54.2471 29.9565 54.2471 30.4652V35.9912C54.2471 36.4998 54.6594 36.9122 55.1681 36.9122H63.1501C63.6587 36.9122 64.0711 36.4998 64.0711 35.9912V30.4652C64.0711 29.9565 63.6587 29.5442 63.1501 29.5442Z" stroke="#0846C3" stroke-width="0.921"/>
<path id="Vector_2" d="M56.7031 29.5441V28.3161C56.7031 27.6647 56.9619 27.04 57.4225 26.5795C57.8831 26.1189 58.5078 25.8601 59.1591 25.8601C59.8105 25.8601 60.4352 26.1189 60.8958 26.5795C61.3564 27.04 61.6151 27.6647 61.6151 28.3161V29.5441" stroke="#0846C3" stroke-width="0.921" stroke-linecap="round"/>
<path id="Vector_3" d="M57.3174 32.614H61.0014M57.3174 34.456H59.7734" stroke="#0846C3" stroke-width="0.921" stroke-linecap="round"/>
</g>
</g>
<g id="Name">
<text id="Nexus Technologies" fill="#111827" style="white-space: pre" xml:space="preserve" font-family="Inter" font-size="9.9" font-weight="bold" letter-spacing="-0.186px"><tspan x="77.7598" y="35.6">Nexus Technologies</tspan></text>
</g>
</g>
<g id="ADA logo + text">
<g id="Text">
<text id="Contractor check-in" fill="#111827" style="white-space: pre" xml:space="preserve" font-family="Inter" font-size="14" font-weight="bold" letter-spacing="0em"><tspan x="461.88" y="37.0909">Contractor check-in</tspan></text>
</g>
</g>
<g id="Date &#38; time">
<g id="Date">
<text id="16 March, Monday" fill="#111827" style="white-space: pre" xml:space="preserve" font-family="Inter" font-size="6.8" letter-spacing="0em"><tspan x="890.663" y="30.4727">16 March,&#10;</tspan><tspan x="896.208" y="38.4727">Monday</tspan></text>
</g>
<path id="divider" d="M930 24.25V39.75" stroke="#E5E7EB" stroke-linecap="round"/>
<g id="Time">
<text id="09:57" fill="#111827" style="white-space: pre" xml:space="preserve" font-family="Inter" font-size="14" font-weight="bold" letter-spacing="-0.62px"><tspan x="938.08" y="36.7709">09:57</tspan></text>
</g>
</g>
</g>
<g id="Contractor - Successful check-in">
<rect width="1024" height="768" fill="#F3F4F6"/>
<g id="New contractor success container">
<path d="M241 132.5C241 123.663 248.163 116.5 257 116.5H767C775.837 116.5 783 123.663 783 132.5V635.5C783 644.337 775.837 651.5 767 651.5H257C248.163 651.5 241 644.337 241 635.5V132.5Z" fill="#032461"/>
<g id="success info + reminder container">
<g id="Success Icon">
<rect x="468" y="156.5" width="88" height="88" rx="44" fill="#5B8FDE"/>
<g id="Component 1">
<path id="Vector_4" d="M498 200.5L508.889 211.389L527.556 189.611" stroke="#EBF1FC" stroke-width="5" stroke-linecap="round" stroke-linejoin="round"/>
</g>
</g>
<g id="Success text">
<g id="Header">
<text id="Welcome on-site" fill="white" style="white-space: pre" xml:space="preserve" font-family="Inter" font-size="38" font-weight="bold" letter-spacing="0px"><tspan x="354.155" y="304.136">Welcome on-site</tspan></text>
</g>
<g id="p">
<g id="You&#39;re all set! A QR code has been sent to your email for fast check-in next time. Have a safe and productive day.">
<text fill="#6B7280" style="white-space: pre" xml:space="preserve" font-family="Inter" font-size="18" font-weight="500" letter-spacing="0px"><tspan x="566.738" y="344.545"> &#10;</tspan><tspan x="454.432" y="398.545"> </tspan></text>
<text fill="white" style="white-space: pre" xml:space="preserve" font-family="Inter" font-size="18" font-weight="500" letter-spacing="0px"><tspan x="312.743" y="371.545">A QR code has been sent to your email for fast </tspan><tspan x="289.918" y="398.545">check-in next time.</tspan></text>
<text fill="#9CA3AF" style="white-space: pre" xml:space="preserve" font-family="Inter" font-size="18" font-weight="500" letter-spacing="0px"><tspan x="452.498" y="344.545">You&#39;re all set</tspan></text>
<text fill="#9CA3AF" style="white-space: pre" xml:space="preserve" font-family="Inter" font-size="18" font-weight="500" letter-spacing="0px"><tspan x="561.447" y="344.545">!</tspan><tspan x="459.195" y="398.545">Have a safe and productive day.</tspan></text>
</g>
</g>
</g>
<g id="Reminder ">
<rect x="321" y="437.5" width="382" height="53" rx="26.5" fill="white" fill-opacity="0.1"/>
<text id="Remember to check out when leaving the building" fill="#EBF1FC" style="white-space: pre" xml:space="preserve" font-family="Inter" font-size="14" font-weight="500" letter-spacing="0px"><tspan x="345.019" y="469.091">Remember to check out when leaving the building</tspan></text>
</g>
</g>
<g id="Screen reset information ">
<g id="Text_2">
<text id="This screen will reset automatically" fill="#EBF1FC" style="white-space: pre" xml:space="preserve" font-family="Inter" font-size="14" font-weight="bold" letter-spacing="0px"><tspan x="360.632" y="586.091">THIS SCREEN WILL RESET AUTOMATICALLY</tspan></text>
</g>
<g id="Progress bar">
<rect width="313" height="4" transform="translate(355.5 607.5)" fill="#E5E7EB"/>
<path id="Progress line" d="M356 607.5H508C509.105 607.5 510 608.395 510 609.5C510 610.605 509.105 611.5 508 611.5H356V607.5Z" fill="#0846C3"/>
</g>
</g>
</g>
<g id="Nav bar _2">
<mask id="path-23-inside-2_23_244" fill="white">
<path d="M0 0H1024V64H0V0Z"/>
</mask>
<path d="M0 0H1024V64H0V0Z" fill="white"/>
<path d="M1024 64V63H0V64V65H1024V64Z" fill="#E5E7EB" mask="url(#path-23-inside-2_23_244)"/>
<g id="Company logo_2">
<g id="Vector_5">
<path d="M53.6692 24.0708C53.3248 24.2975 53.0381 24.6025 52.832 24.9612C52.626 25.3199 52.5063 25.7223 52.4828 26.1361V28.488C52.5063 28.9018 52.626 29.3042 52.832 29.6629C53.0381 30.0216 53.3248 30.3266 53.6692 30.5533L56.124 32.0111C56.775 32.3902 57.3103 32.0792 57.3103 31.3211V23.3516C57.3103 22.5935 56.775 22.2826 56.124 22.6616L53.6692 24.0708Z" fill="#032461"/>
<path d="M53.4134 31.0629C53.057 30.8841 52.6632 30.7909 52.2638 30.7909C51.8644 30.7909 51.4706 30.8841 51.1141 31.0629L49.152 32.1783C48.8177 32.395 48.5392 32.6867 48.3391 33.0297C48.1391 33.3727 48.0229 33.7575 48 34.1532V36.8856C48 37.6105 48.5198 37.9079 49.152 37.5455L55.8017 33.735C56.4339 33.3725 56.4339 32.7823 55.8017 32.4199L53.4134 31.0629Z" fill="#032461"/>
<path d="M62.3309 24.0708C62.6752 24.2975 62.9619 24.6025 63.168 24.9612C63.374 25.3199 63.4937 25.7223 63.5172 26.1361V28.488C63.4937 28.9018 63.374 29.3042 63.168 29.6629C62.9619 30.0216 62.6752 30.3266 62.3309 30.5533L59.8712 32.0111C59.2202 32.3902 58.6897 32.0792 58.6897 31.3211V23.3516C58.6897 22.5935 59.2202 22.2826 59.8712 22.6616L62.3309 24.0708Z" fill="#032461"/>
<path d="M62.3627 31.0629C62.7342 30.8841 63.1447 30.7909 63.5609 30.7909C63.9772 30.7909 64.3877 30.8841 64.7592 31.0629L66.8042 32.1783C67.1521 32.3953 67.4415 32.6871 67.6492 33.0301C67.8569 33.3731 67.9771 33.7578 68 34.1532V36.8856C68 37.6105 67.4631 37.9079 66.8042 37.5455L59.8735 33.735C59.2146 33.3725 59.2146 32.7823 59.8735 32.4199L62.3627 31.0629Z" fill="#032461"/>
<path d="M52.2434 41.2283C52.6 41.4069 52.994 41.5 53.3937 41.5C53.7933 41.5 54.1873 41.4069 54.544 41.2283L56.5072 40.1099C56.8413 39.8922 57.1191 39.5999 57.3185 39.2566C57.5178 38.9132 57.6331 38.5284 57.6552 38.133V35.4042C57.6552 34.6802 57.1398 34.3833 56.5072 34.7452L49.8537 38.5506C49.2212 38.9126 49.2212 39.502 49.8537 39.8639L52.2434 41.2283Z" fill="#032461"/>
<path d="M58 38.1352C58.0233 38.5297 58.1437 38.9135 58.3513 39.2558C58.559 39.5981 58.8482 39.8893 59.1958 40.1062L61.2409 41.2285C61.6123 41.407 62.0228 41.5 62.4391 41.5C62.8554 41.5 63.2658 41.407 63.6373 41.2285L66.1265 39.8604C66.7854 39.4987 66.7854 38.9097 66.1265 38.548L59.1958 34.7451C58.5369 34.3834 58 34.6802 58 35.4037V38.1352Z" fill="#032461"/>
</g>
<g id="Name_2">
<text id="Nexus Technologies_2" fill="#111827" style="white-space: pre" xml:space="preserve" font-family="Inter" font-size="12" font-weight="bold" letter-spacing="0px"><tspan x="75.4404" y="36.3636">Nexus Technologies</tspan></text>
</g>
</g>
<g id="ADA logo + text_2">
<g id="Text_3">
<text id="Contractor check-in_2" fill="#111827" style="white-space: pre" xml:space="preserve" font-family="Inter" font-size="14" font-weight="bold" letter-spacing="0em"><tspan x="472.72" y="37.0909">Contractor check-in</tspan></text>
</g>
</g>
<g id="Date &#38; time_2">
<g id="Date_2">
<text id="16 March, Monday_2" fill="#111827" style="white-space: pre" xml:space="preserve" font-family="Inter" font-size="6.8" letter-spacing="0em"><tspan x="890.663" y="30.4727">16 March,&#10;</tspan><tspan x="896.208" y="38.4727">Monday</tspan></text>
</g>
<path id="divider_2" d="M930 24.25V39.75" stroke="#E5E7EB" stroke-linecap="round"/>
<g id="Time_2">
<text id="09:57_2" fill="#111827" style="white-space: pre" xml:space="preserve" font-family="Inter" font-size="14" font-weight="bold" letter-spacing="-0.62px"><tspan x="938.08" y="36.7709">09:57</tspan></text>
</g>
</g>
</g>
</g>
</g>
</g>
<defs>
<clipPath id="clip0_23_244">
<rect width="1024" height="768" fill="white"/>
</clipPath>
</defs>
</svg>
