<svg width="20" height="19" viewBox="0 0 20 19" fill="none" xmlns="http://www.w3.org/2000/svg">
<rect width="20" height="19" fill="#1E1E1E"/>
<g id="Visitors">
<path d="M-4512 -256.5C-4512 -257.605 -4511.1 -258.5 -4510 -258.5H1449C1450.1 -258.5 1451 -257.605 1451 -256.5V1310.5C1451 1311.6 1450.1 1312.5 1449 1312.5H-4510C-4511.1 1312.5 -4512 1311.6 -4512 1310.5V-256.5Z" fill="#37393C"/>
<path d="M-4510 -258.5V-257.5H1449V-258.5V-259.5H-4510V-258.5ZM1451 -256.5H1450V1310.5H1451H1452V-256.5H1451ZM1449 1312.5V1311.5H-4510V1312.5V1313.5H1449V1312.5ZM-4512 1310.5H-4511V-256.5H-4512H-4513V1310.5H-4512ZM-4510 1312.5V1311.5C-4510.55 1311.5 -4511 1311.05 -4511 1310.5H-4512H-4513C-4513 1312.16 -4511.66 1313.5 -4510 1313.5V1312.5ZM1451 1310.5H1450C1450 1311.05 1449.55 1311.5 1449 1311.5V1312.5V1313.5C1450.66 1313.5 1452 1312.16 1452 1310.5H1451ZM1449 -258.5V-257.5C1449.55 -257.5 1450 -257.052 1450 -256.5H1451H1452C1452 -258.157 1450.66 -259.5 1449 -259.5V-258.5ZM-4510 -258.5V-259.5C-4511.66 -259.5 -4513 -258.157 -4513 -256.5H-4512H-4511C-4511 -257.052 -4510.55 -257.5 -4510 -257.5V-258.5Z" fill="white" fill-opacity="0.1"/>
<g id="Visitor - Successful check-in">
<rect width="1024" height="768" transform="translate(-48 -22.5)" fill="#F3F4F6"/>
<g id="Nav bar ">
<mask id="path-3-inside-1_23_244" fill="white">
<path d="M-48 -22.5H976V41.5H-48V-22.5Z"/>
</mask>
<path d="M-48 -22.5H976V41.5H-48V-22.5Z" fill="white"/>
<path d="M976 41.5V40.5H-48V41.5V42.5H976V41.5Z" fill="#E5E7EB" mask="url(#path-3-inside-1_23_244)"/>
<g id="Company logo">
<g id="Vector">
<path d="M5.66917 1.57081C5.32483 1.7975 5.0381 2.1025 4.83204 2.46118C4.626 2.81987 4.50634 3.22229 4.48276 3.63607V5.98803C4.50634 6.40182 4.626 6.80424 4.83204 7.16292C5.0381 7.52165 5.32483 7.82661 5.66917 8.0533L8.12397 9.51112C8.77503 9.89015 9.31034 9.57917 9.31034 8.82107V0.851605C9.31034 0.0935391 8.77503 -0.217439 8.12397 0.161594L5.66917 1.57081Z" fill="#032461"/>
<path d="M5.41345 8.56295C5.05703 8.38411 4.66321 8.2909 4.26379 8.2909C3.86438 8.2909 3.47055 8.38411 3.11414 8.56295L1.152 9.67825C0.817656 9.89502 0.539242 10.1867 0.339138 10.5297C0.139069 10.8727 0.0228966 11.2575 0 11.6532V14.3856C0 15.1105 0.519828 15.4079 1.152 15.0455L7.80172 11.235C8.43393 10.8725 8.43393 10.2823 7.80172 9.91986L5.41345 8.56295Z" fill="#032461"/>
<path d="M14.3309 1.57081C14.6752 1.7975 14.9619 2.1025 15.168 2.46118C15.374 2.81987 15.4937 3.22229 15.5172 3.63607V5.98803C15.4937 6.40182 15.374 6.80424 15.168 7.16292C14.9619 7.52165 14.6752 7.82661 14.3309 8.0533L11.8712 9.51112C11.2202 9.89015 10.6897 9.57917 10.6897 8.82107V0.851605C10.6897 0.0935391 11.2202 -0.217439 11.8712 0.161594L14.3309 1.57081Z" fill="#032461"/>
<path d="M14.3627 8.56295C14.7342 8.38411 15.1447 8.2909 15.5609 8.2909C15.9772 8.2909 16.3877 8.38411 16.7592 8.56295L18.8042 9.67825C19.1521 9.89526 19.4415 10.1871 19.6492 10.5301C19.8569 10.8731 19.9771 11.2578 20 11.6532V14.3856C20 15.1105 19.4631 15.4079 18.8042 15.0455L11.8735 11.235C11.2146 10.8725 11.2146 10.2823 11.8735 9.91986L14.3627 8.56295Z" fill="#032461"/>
<path d="M4.24338 18.7283C4.6 18.9069 4.99403 19 5.39366 19C5.79331 19 6.18735 18.9069 6.54397 18.7283L8.50724 17.6099C8.84128 17.3922 9.1191 17.0999 9.31848 16.7566C9.51783 16.4132 9.63314 16.0284 9.65517 15.633V12.9042C9.65517 12.1802 9.13979 11.8833 8.50724 12.2452L1.85372 16.0506C1.22117 16.4126 1.22117 17.002 1.85372 17.3639L4.24338 18.7283Z" fill="#032461"/>
<path d="M10 15.6352C10.0233 16.0297 10.1437 16.4135 10.3513 16.7558C10.559 17.0981 10.8482 17.3893 11.1958 17.6062L13.2409 18.7285C13.6123 18.907 14.0228 19 14.4391 19C14.8554 19 15.2658 18.907 15.6373 18.7285L18.1265 17.3604C18.7854 16.9987 18.7854 16.4097 18.1265 16.048L11.1958 12.2451C10.5369 11.8834 10 12.1802 10 12.9037V15.6352Z" fill="#032461"/>
</g>
</g>
</g>
</g>
</g>
</svg>
