<svg width="1024" height="1007" viewBox="0 0 1024 1007" fill="none" xmlns="http://www.w3.org/2000/svg">
<rect width="1024" height="1007" fill="#1E1E1E"/>
<g id="Existing Contractor, Training Incomplete">
<path d="M-4380 -235C-4380 -236.105 -4379.1 -237 -4378 -237H4545C4546.1 -237 4547 -236.105 4547 -235V1332C4547 1333.1 4546.1 1334 4545 1334H-4378C-4379.1 1334 -4380 1333.1 -4380 1332V-235Z" fill="#37393C"/>
<path d="M-4378 -237V-236H4545V-237V-238H-4378V-237ZM4547 -235H4546V1332H4547H4548V-235H4547ZM4545 1334V1333H-4378V1334V1335H4545V1334ZM-4380 1332H-4379V-235H-4380H-4381V1332H-4380ZM-4378 1334V1333C-4378.55 1333 -4379 1332.55 -4379 1332H-4380H-4381C-4381 1333.66 -4379.66 1335 -4378 1335V1334ZM4547 1332H4546C4546 1332.55 4545.55 1333 4545 1333V1334V1335C4546.66 1335 4548 1333.66 4548 1332H4547ZM4545 -237V-236C4545.55 -236 4546 -235.552 4546 -235H4547H4548C4548 -236.657 4546.66 -238 4545 -238V-237ZM-4378 -237V-238C-4379.66 -238 -4381 -236.657 -4381 -235H-4380H-4379C-4379 -235.552 -4378.55 -236 -4378 -236V-237Z" fill="white" fill-opacity="0.1"/>
<g id="Returning contractor (incomplete onboarding) - Safety training" clip-path="url(#clip0_23_244)">
<rect width="1024" height="1007" fill="#F3F4F6"/>
<g id="Nav bar ">
<mask id="path-3-inside-1_23_244" fill="white">
<path d="M0 0H1024V64H0V0Z"/>
</mask>
<path d="M0 0H1024V64H0V0Z" fill="white"/>
<path d="M1024 64V63H0V64V65H1024V64Z" fill="#E5E7EB" mask="url(#path-3-inside-1_23_244)"/>
<g id="Company logo">
<g id="Vector">
<path d="M53.6692 24.0708C53.3248 24.2975 53.0381 24.6025 52.832 24.9612C52.626 25.3199 52.5063 25.7223 52.4828 26.1361V28.488C52.5063 28.9018 52.626 29.3042 52.832 29.6629C53.0381 30.0216 53.3248 30.3266 53.6692 30.5533L56.124 32.0111C56.775 32.3902 57.3103 32.0792 57.3103 31.3211V23.3516C57.3103 22.5935 56.775 22.2826 56.124 22.6616L53.6692 24.0708Z" fill="#032461"/>
<path d="M53.4134 31.0629C53.057 30.8841 52.6632 30.7909 52.2638 30.7909C51.8644 30.7909 51.4706 30.8841 51.1141 31.0629L49.152 32.1783C48.8177 32.395 48.5392 32.6867 48.3391 33.0297C48.1391 33.3727 48.0229 33.7575 48 34.1532V36.8856C48 37.6105 48.5198 37.9079 49.152 37.5455L55.8017 33.735C56.4339 33.3725 56.4339 32.7823 55.8017 32.4199L53.4134 31.0629Z" fill="#032461"/>
<path d="M62.3309 24.0708C62.6752 24.2975 62.9619 24.6025 63.168 24.9612C63.374 25.3199 63.4937 25.7223 63.5172 26.1361V28.488C63.4937 28.9018 63.374 29.3042 63.168 29.6629C62.9619 30.0216 62.6752 30.3266 62.3309 30.5533L59.8712 32.0111C59.2202 32.3902 58.6897 32.0792 58.6897 31.3211V23.3516C58.6897 22.5935 59.2202 22.2826 59.8712 22.6616L62.3309 24.0708Z" fill="#032461"/>
<path d="M62.3627 31.0629C62.7342 30.8841 63.1447 30.7909 63.5609 30.7909C63.9772 30.7909 64.3877 30.8841 64.7592 31.0629L66.8042 32.1783C67.1521 32.3953 67.4415 32.6871 67.6492 33.0301C67.8569 33.3731 67.9771 33.7578 68 34.1532V36.8856C68 37.6105 67.4631 37.9079 66.8042 37.5455L59.8735 33.735C59.2146 33.3725 59.2146 32.7823 59.8735 32.4199L62.3627 31.0629Z" fill="#032461"/>
<path d="M52.2434 41.2283C52.6 41.4069 52.994 41.5 53.3937 41.5C53.7933 41.5 54.1873 41.4069 54.544 41.2283L56.5072 40.1099C56.8413 39.8922 57.1191 39.5999 57.3185 39.2566C57.5178 38.9132 57.6331 38.5284 57.6552 38.133V35.4042C57.6552 34.6802 57.1398 34.3833 56.5072 34.7452L49.8537 38.5506C49.2212 38.9126 49.2212 39.502 49.8537 39.8639L52.2434 41.2283Z" fill="#032461"/>
<path d="M58 38.1352C58.0233 38.5297 58.1437 38.9135 58.3513 39.2558C58.559 39.5981 58.8482 39.8893 59.1958 40.1062L61.2409 41.2285C61.6123 41.407 62.0228 41.5 62.4391 41.5C62.8554 41.5 63.2658 41.407 63.6373 41.2285L66.1265 39.8604C66.7854 39.4987 66.7854 38.9097 66.1265 38.548L59.1958 34.7451C58.5369 34.3834 58 34.6802 58 35.4037V38.1352Z" fill="#032461"/>
</g>
<g id="Name">
<text id="Nexus Technologies" fill="#111827" style="white-space: pre" xml:space="preserve" font-family="Inter" font-size="12" font-weight="bold" letter-spacing="0px"><tspan x="75.4399" y="36.3636">Nexus Technologies</tspan></text>
</g>
</g>
<g id="ADA logo + text">
<g id="Text">
<text id="Contractor check-in" fill="#111827" style="white-space: pre" xml:space="preserve" font-family="Inter" font-size="14" font-weight="bold" letter-spacing="0em"><tspan x="472.72" y="37.0909">Contractor check-in</tspan></text>
</g>
</g>
<g id="Date &#38; time">
<g id="Date">
<text id="16 March, Monday" fill="#111827" style="white-space: pre" xml:space="preserve" font-family="Inter" font-size="6.8" letter-spacing="0em"><tspan x="890.663" y="30.4727">16 March,&#10;</tspan><tspan x="896.208" y="38.4727">Monday</tspan></text>
</g>
<path id="divider" d="M930 24.25V39.75" stroke="#E5E7EB" stroke-linecap="round"/>
<g id="Time">
<text id="09:57" fill="#111827" style="white-space: pre" xml:space="preserve" font-family="Inter" font-size="14" font-weight="bold" letter-spacing="-0.62px"><tspan x="938.08" y="36.7709">09:57</tspan></text>
</g>
</g>
</g>
<g id="Progress indicator + Safety training container">
<g id="Incomplete onboarding container ">
<g id="Info">
<mask id="path-11-inside-2_23_244" fill="white">
<path d="M48 96H964C970.627 96 976 101.373 976 108V196C976 202.627 970.627 208 964 208H48V96Z"/>
</mask>
<path d="M48 96H964C970.627 96 976 101.373 976 108V196C976 202.627 970.627 208 964 208H48V96Z" fill="white"/>
<g clip-path="url(#paint0_diamond_23_244_clip_path)" data-figma-skip-parse="true" mask="url(#path-11-inside-2_23_244)"><g transform="matrix(0.116 0 0 0.056 48 152)"><rect x="0" y="0" width="8008.62" height="1017.86" fill="url(#paint0_diamond_23_244)" opacity="1" shape-rendering="crispEdges"/><rect x="0" y="0" width="8008.62" height="1017.86" transform="scale(1 -1)" fill="url(#paint0_diamond_23_244)" opacity="1" shape-rendering="crispEdges"/><rect x="0" y="0" width="8008.62" height="1017.86" transform="scale(-1 1)" fill="url(#paint0_diamond_23_244)" opacity="1" shape-rendering="crispEdges"/><rect x="0" y="0" width="8008.62" height="1017.86" transform="scale(-1)" fill="url(#paint0_diamond_23_244)" opacity="1" shape-rendering="crispEdges"/></g></g><path d="M44 94.5H964C971.456 94.5 977.5 100.544 977.5 108H974.5C974.5 102.201 969.799 97.5 964 97.5H52L44 94.5ZM977.5 196C977.5 203.456 971.456 209.5 964 209.5H44L52 206.5H964C969.799 206.5 974.5 201.799 974.5 196H977.5ZM44 209.5V94.5L52 97.5V206.5L44 209.5ZM964 94.5C971.456 94.5 977.5 100.544 977.5 108V196C977.5 203.456 971.456 209.5 964 209.5V206.5C969.799 206.5 974.5 201.799 974.5 196V108C974.5 102.201 969.799 97.5 964 97.5V94.5Z" data-figma-gradient-fill="{&#34;type&#34;:&#34;GRADIENT_DIAMOND&#34;,&#34;stops&#34;:[{&#34;color&#34;:{&#34;r&#34;:0.96078431606292725,&#34;g&#34;:0.61960786581039429,&#34;b&#34;:0.043137256056070328,&#34;a&#34;:1.0},&#34;position&#34;:0.99999988079071045},{&#34;color&#34;:{&#34;r&#34;:0.89803922176361084,&#34;g&#34;:0.90588235855102539,&#34;b&#34;:0.92156863212585449,&#34;a&#34;:1.0},&#34;position&#34;:1.0}],&#34;stopsVar&#34;:[{&#34;color&#34;:{&#34;r&#34;:0.96078431606292725,&#34;g&#34;:0.61960786581039429,&#34;b&#34;:0.043137256056070328,&#34;a&#34;:1.0},&#34;position&#34;:0.99999988079071045},{&#34;color&#34;:{&#34;r&#34;:0.89803922176361084,&#34;g&#34;:0.90588235855102539,&#34;b&#34;:0.92156863212585449,&#34;a&#34;:1.0},&#34;position&#34;:1.0}],&#34;transform&#34;:{&#34;m00&#34;:232.0,&#34;m01&#34;:0.0,&#34;m02&#34;:-68.0,&#34;m10&#34;:0.0,&#34;m11&#34;:112.0,&#34;m12&#34;:96.0},&#34;opacity&#34;:1.0,&#34;blendMode&#34;:&#34;NORMAL&#34;,&#34;visible&#34;:true}" mask="url(#path-11-inside-2_23_244)"/>
<g id="Info text + icon container">
<g id="Icon">
<rect x="72" y="132" width="40" height="40" rx="10" fill="#FFDB43" fill-opacity="0.1"/>
<g id="Component 1">
<path id="Vector_2" d="M92 145C91.0807 145 90.1705 145.181 89.3212 145.533C88.4719 145.885 87.7003 146.4 87.0503 147.05C86.4002 147.7 85.8846 148.472 85.5328 149.321C85.1811 150.17 85 151.081 85 152C85 152.919 85.1811 153.83 85.5328 154.679C85.8846 155.528 86.4002 156.3 87.0503 156.95C87.7003 157.6 88.4719 158.115 89.3212 158.467C90.1705 158.819 91.0807 159 92 159C93.8565 159 95.637 158.263 96.9497 156.95C98.2625 155.637 99 153.857 99 152C99 150.143 98.2625 148.363 96.9497 147.05C95.637 145.737 93.8565 145 92 145Z" stroke="#F59E0B" stroke-width="1.5"/>
<path id="Vector_3" d="M92 149V152.5M92 155H92.01" stroke="#F59E0B" stroke-width="1.8" stroke-linecap="round"/>
</g>
</g>
<g id="Info text">
<g id="Header">
<text id="Your onboarding is incomplete" fill="#111827" style="white-space: pre" xml:space="preserve" font-family="Inter" font-size="18" font-weight="bold" letter-spacing="0px"><tspan x="128" y="132.045">Your onboarding is incomplete</tspan></text>
</g>
<g id="sub text">
<text id="Complete the safety training below to be fully onboarded &#226;&#128;&#148; it takes less than 5 minutes." fill="#6B7280" style="white-space: pre" xml:space="preserve" font-family="Inter" font-size="16" font-weight="500" letter-spacing="0px"><tspan x="128" y="159.318">Complete the safety training below to be fully onboarded &#x2014; it takes less than 5 minutes. </tspan></text>
</g>
<g id="sub text_2">
<text id="Step 3 of 3 &#226;&#128;&#147; Safety training" fill="#9CA3AF" style="white-space: pre" xml:space="preserve" font-family="Inter" font-size="12" font-weight="bold" letter-spacing="0px"><tspan x="128" y="184.364">STEP 3 OF 3 &#x2013; SAFETY TRAINING</tspan></text>
</g>
</g>
</g>
</g>
</g>
<g id="Safety training container">
<g id="Title">
<g id="Title text">
<text id="Safety training" fill="#032461" style="white-space: pre" xml:space="preserve" font-family="Inter" font-size="26" font-weight="bold" letter-spacing="0px"><tspan x="48.0371" y="258.909">Safety training</tspan></text>
</g>
<g id="Subtext container">
<text id="Subtext" fill="#111827" style="white-space: pre" xml:space="preserve" font-family="Inter" font-size="16" letter-spacing="0px"><tspan x="48.125" y="292.818">Carefully review and acknowledge our safety policy to proceed </tspan></text>
</g>
</g>
<g id="Health &#38; security container">
<g id="Health &#38; safety notice container">
<rect x="48.5" y="323.5" width="927" height="186.905" rx="11.5" fill="#FFFBEB"/>
<rect x="48.5" y="323.5" width="927" height="186.905" rx="11.5" stroke="#FDE68A"/>
<g id="Header_2">
<g id="Icon_2">
<path id="Vector_4" d="M83 351.25L74.25 367.5H91.75L83 351.25Z" stroke="#92400E" stroke-width="2" stroke-linejoin="round"/>
<path id="Vector_5" d="M83 357.5V361.25" stroke="#92400E" stroke-width="2" stroke-linecap="round"/>
<path id="Vector_6" d="M82.9042 365.759C83.3845 365.759 83.7738 365.37 83.7738 364.89C83.7738 364.409 83.3845 364.02 82.9042 364.02C82.424 364.02 82.0347 364.409 82.0347 364.89C82.0347 365.37 82.424 365.759 82.9042 365.759Z" fill="#92400E"/>
</g>
<text id="Health &#38; safety notices" fill="#92400E" style="white-space: pre" xml:space="preserve" font-family="Inter" font-size="20" font-weight="bold" letter-spacing="0em"><tspan x="96.7202" y="367.273">Health &#38; safety notices</tspan></text>
</g>
<g id="text" opacity="0.85">
<g id="p1">
<g id="There have been two recorded cases of COVID at this location. Use facemasks where required and sanitize hands as needed.">
<text fill="#92400E" style="white-space: pre" xml:space="preserve" font-family="Inter" font-size="16" letter-spacing="0px"><tspan x="97" y="405.818">There have been </tspan><tspan x="582.172" y="405.818"> Use facemasks </tspan><tspan x="97" y="429.818">where required and sanitize hands as needed.</tspan></text>
<text fill="#92400E" style="white-space: pre" xml:space="preserve" font-family="Inter" font-size="16" font-weight="bold" letter-spacing="0px"><tspan x="228.516" y="405.818">two recorded cases of COVID at this location.</tspan></text>
</g>
</g>
<g id="P2">
<g id="The elevator on L4 is undergoing maintenance; this will be completed by the end of business day.">
<text fill="#92400E" style="white-space: pre" xml:space="preserve" font-family="Inter" font-size="16" letter-spacing="0px"><tspan x="463.656" y="455.723"> this will be completed by the end </tspan><tspan x="97" y="479.723">of business day.</tspan></text>
<text fill="#92400E" style="white-space: pre" xml:space="preserve" font-family="Inter" font-size="16" font-weight="bold" letter-spacing="0px"><tspan x="97" y="455.723">The elevator on L4 is undergoing maintenance;</tspan></text>
</g>
</g>
</g>
</g>
<g id="Security acknowledgement container">
<rect x="48.5" y="527.405" width="927" height="382" rx="11.5" fill="white"/>
<rect x="48.5" y="527.405" width="927" height="382" rx="11.5" stroke="#E5E7EB"/>
<g id="Header_3">
<g id="icon">
<path id="Vector_7" d="M82 554L75 557.4V562.5C75 567.033 77.9167 569.3 82 571C86.0833 569.3 89 567.033 89 562.5V557.4L82 554Z" stroke="#032461" stroke-width="2" stroke-linejoin="round"/>
</g>
<text id="Security acknowledgement" fill="#032461" style="white-space: pre" xml:space="preserve" font-family="Inter" font-size="20" font-weight="bold" letter-spacing="0em"><tspan x="95.7202" y="570.178">Security acknowledgement</tspan></text>
</g>
<g id="Info container">
<g id="Selector 1">
<g id="Selector">
<g id="Group 1">
<rect id="div" x="72.5" y="603.405" width="15" height="15" rx="3.5" fill="#0846C3" stroke="#0846C3"/>
<path id="Vector_8" d="M75.8711 611.292L78.7743 614.518L83.613 608.066" stroke="white" stroke-width="1.5" stroke-linecap="round" stroke-linejoin="round"/>
</g>
</g>
<text id="I acknowledge that I reviewed the HIAA Security awareness presentation." fill="#111827" style="white-space: pre" xml:space="preserve" font-family="Inter" font-size="16" font-weight="500" letter-spacing="0em"><tspan x="96" y="616.648">I acknowledge that I reviewed the HIAA Security awareness presentation.</tspan></text>
</g>
<g id="Selector 2">
<g id="Selector_2">
<g id="Selector_3">
<rect id="div_2" x="72.5" y="653.905" width="15" height="15" rx="3.5" fill="white" stroke="#D8DEE8"/>
</g>
<text id="Locking and logging off my workstation when I leave my work area." fill="#6B7280" style="white-space: pre" xml:space="preserve" font-family="Inter" font-size="16" font-weight="500" letter-spacing="0em"><tspan x="95" y="667.223">I am responsible for protecting electronic information:</tspan></text>
</g>
<g id="Texts">
<g id="Line 1">
<text id="Locking and logging off my workstation when I leave my work area._2" fill="#111827" style="white-space: pre" xml:space="preserve" font-family="Inter" font-size="16" letter-spacing="0em"><tspan x="112" y="706.148">Locking and logging off my workstation when I leave my work area.</tspan></text>
</g>
<g id="Line 2">
<text id="Not changing settings which disable security features." fill="#111827" style="white-space: pre" xml:space="preserve" font-family="Inter" font-size="16" letter-spacing="0em"><tspan x="112" y="749.148">Not changing settings which disable security features.</tspan></text>
</g>
<g id="Line 3">
<text id="Not loading unauthorised software on my workstation." fill="#111827" style="white-space: pre" xml:space="preserve" font-family="Inter" font-size="16" letter-spacing="0em"><tspan x="112" y="792.148">Not loading unauthorised software on my workstation.</tspan></text>
</g>
<g id="Line 4">
<text id="Following all guidelines for electronic mail or messaging." fill="#111827" style="white-space: pre" xml:space="preserve" font-family="Inter" font-size="16" letter-spacing="0em"><tspan x="112" y="835.148">Following all guidelines for electronic mail or messaging.</tspan></text>
</g>
<g id="Line 5">
<text id="Reporting any security problems to my immediate supervisor." fill="#111827" style="white-space: pre" xml:space="preserve" font-family="Inter" font-size="16" letter-spacing="0em"><tspan x="112" y="878.148">Reporting any security problems to my immediate supervisor.</tspan></text>
</g>
</g>
</g>
</g>
</g>
</g>
</g>
</g>
<g id="CTA container">
<rect x="0.5" y="935.5" width="1023" height="71" fill="white"/>
<rect x="0.5" y="935.5" width="1023" height="71" stroke="#E5E7EB"/>
<g id="Secondary button">
<mask id="path-43-inside-3_23_244" fill="white">
<path d="M48 959C48 953.477 52.4772 949 58 949H153C158.523 949 163 953.477 163 959V983C163 988.523 158.523 993 153 993H58C52.4772 993 48 988.523 48 983V959Z"/>
</mask>
<path d="M58 949V950H153V949V948H58V949ZM163 959H162V983H163H164V959H163ZM153 993V992H58V993V994H153V993ZM48 983H49V959H48H47V983H48ZM58 993V992C53.0294 992 49 987.971 49 983H48H47C47 989.075 51.9249 994 58 994V993ZM163 983H162C162 987.971 157.971 992 153 992V993V994C159.075 994 164 989.075 164 983H163ZM153 949V950C157.971 950 162 954.029 162 959H163H164C164 952.925 159.075 948 153 948V949ZM58 949V948C51.9249 948 47 952.925 47 959H48H49C49 954.029 53.0294 950 58 950V949Z" fill="#E5E7EB" mask="url(#path-43-inside-3_23_244)"/>
<text id="Go Back" fill="#6B7280" style="white-space: pre" xml:space="preserve" font-family="Inter" font-size="16" font-weight="600" letter-spacing="0px"><tspan x="73.5859" y="976.818">Go Back</tspan></text>
</g>
<g id="button">
<rect x="875" y="949" width="101" height="44" rx="10" fill="#0846C3"/>
<text id="Next" fill="white" style="white-space: pre" xml:space="preserve" font-family="Inter" font-size="16" font-weight="600" letter-spacing="0px"><tspan x="907.383" y="976.818">Next</tspan></text>
</g>
</g>
</g>
</g>
<defs>
<clipPath id="paint0_diamond_23_244_clip_path"><path d="M44 94.5H964C971.456 94.5 977.5 100.544 977.5 108H974.5C974.5 102.201 969.799 97.5 964 97.5H52L44 94.5ZM977.5 196C977.5 203.456 971.456 209.5 964 209.5H44L52 206.5H964C969.799 206.5 974.5 201.799 974.5 196H977.5ZM44 209.5V94.5L52 97.5V206.5L44 209.5ZM964 94.5C971.456 94.5 977.5 100.544 977.5 108V196C977.5 203.456 971.456 209.5 964 209.5V206.5C969.799 206.5 974.5 201.799 974.5 196V108C974.5 102.201 969.799 97.5 964 97.5V94.5Z" mask="url(#path-11-inside-2_23_244)"/></clipPath><linearGradient id="paint0_diamond_23_244" x1="0" y1="0" x2="500" y2="500" gradientUnits="userSpaceOnUse">
<stop offset="1" stop-color="#F59E0B"/>
<stop offset="1" stop-color="#E5E7EB"/>
</linearGradient>
<clipPath id="clip0_23_244">
<rect width="1024" height="1007" fill="white"/>
</clipPath>
</defs>
</svg>
