<svg width="1024" height="768" viewBox="0 0 1024 768" fill="none" xmlns="http://www.w3.org/2000/svg">
<rect width="1024" height="768" fill="#1E1E1E"/>
<g id="Returning Contractor &#38; New Contractor Who Onboarded Beforehand">
<path d="M-2348 -139C-2348 -140.105 -2347.1 -141 -2346 -141H3271C3272.1 -141 3273 -140.105 3273 -139V1513C3273 1514.1 3272.1 1515 3271 1515H-2346C-2347.1 1515 -2348 1514.1 -2348 1513V-139Z" fill="#37393C"/>
<path d="M-2346 -141V-140H3271V-141V-142H-2346V-141ZM3273 -139H3272V1513H3273H3274V-139H3273ZM3271 1515V1514H-2346V1515V1516H3271V1515ZM-2348 1513H-2347V-139H-2348H-2349V1513H-2348ZM-2346 1515V1514C-2346.55 1514 -2347 1513.55 -2347 1513H-2348H-2349C-2349 1514.66 -2347.66 1516 -2346 1516V1515ZM3273 1513H3272C3272 1513.55 3271.55 1514 3271 1514V1515V1516C3272.66 1516 3274 1514.66 3274 1513H3273ZM3271 -141V-140C3271.55 -140 3272 -139.552 3272 -139H3273H3274C3274 -140.657 3272.66 -142 3271 -142V-141ZM-2346 -141V-142C-2347.66 -142 -2349 -140.657 -2349 -139H-2348H-2347C-2347 -139.552 -2346.55 -140 -2346 -140V-141Z" fill="white" fill-opacity="0.1"/>
<g id="Returning contractor (completed onboarding)- Successful check-in" clip-path="url(#clip0_23_244)">
<rect width="1024" height="768" fill="#F3F4F6"/>
<g id="Success text container">
<rect width="1024" height="223" transform="translate(0 64)" fill="#032461"/>
<g id="Success text">
<g id="Header">
<text id="Welcome back" fill="white" style="white-space: pre" xml:space="preserve" font-family="Inter" font-size="38" font-weight="bold" letter-spacing="0px"><tspan x="48" y="139.636">Welcome back</tspan></text>
</g>
<g id="p">
<text id="Confirm your details and check in" fill="#E5E7EB" style="white-space: pre" xml:space="preserve" font-family="Inter" font-size="18" font-weight="500" letter-spacing="0px"><tspan x="48" y="180.045">Confirm your details and check in</tspan></text>
</g>
</g>
</g>
<g id="Profile card + Optional input container">
<g id="Profile card">
<g id="Fully complete">
<mask id="path-5-inside-1_23_244" fill="white">
<path d="M47 239C47 231.268 53.268 225 61 225H962C969.732 225 976 231.268 976 239V384C976 391.732 969.732 398 962 398H61C53.268 398 47 391.732 47 384V239Z"/>
</mask>
<path d="M47 239C47 231.268 53.268 225 61 225H962C969.732 225 976 231.268 976 239V384C976 391.732 969.732 398 962 398H61C53.268 398 47 391.732 47 384V239Z" fill="white"/>
<path d="M61 225V226H962V225V224H61V225ZM976 239H975V384H976H977V239H976ZM962 398V397H61V398V399H962V398ZM47 384H48V239H47H46V384H47ZM61 398V397C53.8203 397 48 391.18 48 384H47H46C46 392.284 52.7157 399 61 399V398ZM976 384H975C975 391.18 969.18 397 962 397V398V399C970.284 399 977 392.284 977 384H976ZM962 225V226C969.18 226 975 231.82 975 239H976H977C977 230.716 970.284 224 962 224V225ZM61 225V224C52.7157 224 46 230.716 46 239H47H48C48 231.82 53.8203 226 61 226V225Z" fill="#E5E7EB" mask="url(#path-5-inside-1_23_244)"/>
<g id="Profile info container">
<g id="Profile display image">
<rect x="72" y="250" width="52" height="52" rx="14" fill="#E5E7EB"/>
<text id="JP" fill="#032461" style="white-space: pre" xml:space="preserve" font-family="Inter" font-size="18" font-weight="bold" letter-spacing="0px"><tspan x="87.04" y="282.545">JP</tspan></text>
</g>
<g id="Info text">
<g id="Header_2">
<text id="John Pedro" fill="#111827" style="white-space: pre" xml:space="preserve" font-family="Inter" font-size="18" font-weight="bold" letter-spacing="0px"><tspan x="140" y="270.045">John Pedro</tspan></text>
</g>
<g id="Contractor details container">
<g id="Email">
<text id="johnpedro@gmail.com" fill="#6B7280" style="white-space: pre" xml:space="preserve" font-family="Inter" font-size="16" letter-spacing="0px"><tspan x="140" y="302.818">johnpedro@gmail.com</tspan></text>
</g>
<g id="Number ">
<text id="+235678908358" fill="#6B7280" style="white-space: pre" xml:space="preserve" font-family="Inter" font-size="16" letter-spacing="0px"><tspan x="481.5" y="302.818">+235678908358</tspan></text>
</g>
<g id="Company">
<text id="Green Life Plumbers" fill="#111827" style="white-space: pre" xml:space="preserve" font-family="Inter" font-size="16" font-weight="500" letter-spacing="0px"><tspan x="796" y="302.818">Green Life Plumbers</tspan></text>
</g>
</g>
</g>
</g>
<g id="Badges">
<mask id="path-13-inside-2_23_244" fill="white">
<path d="M72 325H951V373H72V325Z"/>
</mask>
<path d="M72 325V326H951V325V324H72V325Z" fill="#E5E7EB" mask="url(#path-13-inside-2_23_244)"/>
<g id="Badge 1">
<rect x="72" y="342" width="113" height="31" rx="15.5" fill="#0846C3" fill-opacity="0.1"/>
<g id="Component 1">
<path id="Vector" d="M84.5 357.5L87 360L91.5 355" stroke="#032461" stroke-width="1.5" stroke-linecap="round" stroke-linejoin="round"/>
</g>
<text id="Onboarded" fill="#032461" style="white-space: pre" xml:space="preserve" font-family="Inter" font-size="14" font-weight="500" letter-spacing="0px"><tspan x="99" y="362.591">Onboarded</tspan></text>
</g>
<g id="Badge 2">
<rect x="193" y="342" width="158" height="31" rx="15.5" fill="#0846C3" fill-opacity="0.1"/>
<g id="Component 1_2">
<path id="Vector_2" d="M205.5 357.5L208 360L212.5 355" stroke="#032461" stroke-width="1.5" stroke-linecap="round" stroke-linejoin="round"/>
</g>
<text id="Training complete" fill="#032461" style="white-space: pre" xml:space="preserve" font-family="Inter" font-size="14" font-weight="500" letter-spacing="0px"><tspan x="220" y="362.591">Training complete</tspan></text>
</g>
</g>
</g>
</g>
<g id="Optional input">
<g id="divider">
<mask id="path-21-inside-3_23_244" fill="white">
<path d="M47 443H976V446H47V443Z"/>
</mask>
<path d="M47 443V444H976V443V442H47V443Z" fill="#D3D6DA" mask="url(#path-21-inside-3_23_244)"/>
<g id="Tag">
<rect x="47" y="433" width="228" height="23" rx="4" fill="#D1D5DB"/>
<text id="Optional (SKIP If not needed)" fill="#4B5563" style="white-space: pre" xml:space="preserve" font-family="Inter" font-size="12" font-weight="600" letter-spacing="0.62px"><tspan x="55" y="448.864">OPTIONAL (SKIP IF NOT NEEDED)</tspan></text>
</g>
</g>
<g id="Input row">
<g id="Text input">
<g id="label container">
<g id="label">
<text id="Mobile number" fill="#111827" style="white-space: pre" xml:space="preserve" font-family="Inter" font-size="14" font-weight="bold" letter-spacing="0px"><tspan x="47" y="488.182">Host</tspan></text>
</g>
</g>
<g id="input">
<mask id="path-26-inside-4_23_244" fill="white">
<path d="M47 503C47 497.477 51.4772 493 57 493H491.5C497.023 493 501.5 497.477 501.5 503V531C501.5 536.523 497.023 541 491.5 541H57C51.4772 541 47 536.523 47 531V503Z"/>
</mask>
<path d="M47 503C47 497.477 51.4772 493 57 493H491.5C497.023 493 501.5 497.477 501.5 503V531C501.5 536.523 497.023 541 491.5 541H57C51.4772 541 47 536.523 47 531V503Z" fill="white"/>
<path d="M57 493V494H491.5V493V492H57V493ZM501.5 503H500.5V531H501.5H502.5V503H501.5ZM491.5 541V540H57V541V542H491.5V541ZM47 531H48V503H47H46V531H47ZM57 541V540C52.0294 540 48 535.971 48 531H47H46C46 537.075 50.9249 542 57 542V541ZM501.5 531H500.5C500.5 535.971 496.471 540 491.5 540V541V542C497.575 542 502.5 537.075 502.5 531H501.5ZM491.5 493V494C496.471 494 500.5 498.029 500.5 503H501.5H502.5C502.5 496.925 497.575 492 491.5 492V493ZM57 493V492C50.9249 492 46 496.925 46 503H47H48C48 498.029 52.0294 494 57 494V493Z" fill="#E5E7EB" mask="url(#path-26-inside-4_23_244)"/>
<g id="input text" clip-path="url(#clip1_23_244)">
<text id="+64" fill="#9CA3AF" style="white-space: pre" xml:space="preserve" font-family="Inter" font-size="14" letter-spacing="0em"><tspan x="62.5" y="522.091">Who are you visiting?</tspan></text>
</g>
</g>
</g>
<g id="Text input_2">
<g id="label container_2">
<g id="label_2">
<text id="Mobile number_2" fill="#111827" style="white-space: pre" xml:space="preserve" font-family="Inter" font-size="14" font-weight="bold" letter-spacing="0px"><tspan x="521.5" y="488.182">Reason for visit</tspan></text>
</g>
</g>
<g id="input_2">
<mask id="path-30-inside-5_23_244" fill="white">
<path d="M521.5 503C521.5 497.477 525.977 493 531.5 493H966C971.523 493 976 497.477 976 503V531C976 536.523 971.523 541 966 541H531.5C525.977 541 521.5 536.523 521.5 531V503Z"/>
</mask>
<path d="M521.5 503C521.5 497.477 525.977 493 531.5 493H966C971.523 493 976 497.477 976 503V531C976 536.523 971.523 541 966 541H531.5C525.977 541 521.5 536.523 521.5 531V503Z" fill="white"/>
<path d="M531.5 493V494H966V493V492H531.5V493ZM976 503H975V531H976H977V503H976ZM966 541V540H531.5V541V542H966V541ZM521.5 531H522.5V503H521.5H520.5V531H521.5ZM531.5 541V540C526.529 540 522.5 535.971 522.5 531H521.5H520.5C520.5 537.075 525.425 542 531.5 542V541ZM976 531H975C975 535.971 970.971 540 966 540V541V542C972.075 542 977 537.075 977 531H976ZM966 493V494C970.971 494 975 498.029 975 503H976H977C977 496.925 972.075 492 966 492V493ZM531.5 493V492C525.425 492 520.5 496.925 520.5 503H521.5H522.5C522.5 498.029 526.529 494 531.5 494V493Z" fill="#E5E7EB" mask="url(#path-30-inside-5_23_244)"/>
<g id="input text_2" clip-path="url(#clip2_23_244)">
<text id="+64_2" fill="#9CA3AF" style="white-space: pre" xml:space="preserve" font-family="Inter" font-size="14" letter-spacing="0em"><tspan x="537" y="522.091">+64</tspan></text>
</g>
</g>
</g>
</g>
</g>
</g>
<g id="CTA container">
<rect x="0.5" y="696.5" width="1023" height="71" fill="white"/>
<rect x="0.5" y="696.5" width="1023" height="71" stroke="#E5E7EB"/>
<g id="Secondary button">
<mask id="path-34-inside-6_23_244" fill="white">
<path d="M48 720C48 714.477 52.4772 710 58 710H153C158.523 710 163 714.477 163 720V744C163 749.523 158.523 754 153 754H58C52.4772 754 48 749.523 48 744V720Z"/>
</mask>
<path d="M58 710V711H153V710V709H58V710ZM163 720H162V744H163H164V720H163ZM153 754V753H58V754V755H153V754ZM48 744H49V720H48H47V744H48ZM58 754V753C53.0294 753 49 748.971 49 744H48H47C47 750.075 51.9249 755 58 755V754ZM163 744H162C162 748.971 157.971 753 153 753V754V755C159.075 755 164 750.075 164 744H163ZM153 710V711C157.971 711 162 715.029 162 720H163H164C164 713.925 159.075 709 153 709V710ZM58 710V709C51.9249 709 47 713.925 47 720H48H49C49 715.029 53.0294 711 58 711V710Z" fill="#E5E7EB" mask="url(#path-34-inside-6_23_244)"/>
<text id="Go Back" fill="#6B7280" style="white-space: pre" xml:space="preserve" font-family="Inter" font-size="16" font-weight="600" letter-spacing="0px"><tspan x="73.5859" y="737.818">Go Back</tspan></text>
</g>
<g id="button">
<rect x="841" y="710" width="135" height="44" rx="10" fill="#0846C3"/>
<text id="Check-in" fill="white" style="white-space: pre" xml:space="preserve" font-family="Inter" font-size="16" font-weight="600" letter-spacing="0px"><tspan x="873.266" y="737.818">Check-in</tspan></text>
</g>
</g>
<g id="Nav bar ">
<mask id="path-39-inside-7_23_244" fill="white">
<path d="M0 0H1024V64H0V0Z"/>
</mask>
<path d="M0 0H1024V64H0V0Z" fill="white"/>
<path d="M1024 64V63H0V64V65H1024V64Z" fill="#E5E7EB" mask="url(#path-39-inside-7_23_244)"/>
<g id="Company logo">
<g id="Vector_3">
<path d="M53.6692 24.0708C53.3248 24.2975 53.0381 24.6025 52.832 24.9612C52.626 25.3199 52.5063 25.7223 52.4828 26.1361V28.488C52.5063 28.9018 52.626 29.3042 52.832 29.6629C53.0381 30.0216 53.3248 30.3266 53.6692 30.5533L56.124 32.0111C56.775 32.3902 57.3103 32.0792 57.3103 31.3211V23.3516C57.3103 22.5935 56.775 22.2826 56.124 22.6616L53.6692 24.0708Z" fill="#032461"/>
<path d="M53.4134 31.0629C53.057 30.8841 52.6632 30.7909 52.2638 30.7909C51.8644 30.7909 51.4706 30.8841 51.1141 31.0629L49.152 32.1783C48.8177 32.395 48.5392 32.6867 48.3391 33.0297C48.1391 33.3727 48.0229 33.7575 48 34.1532V36.8856C48 37.6105 48.5198 37.9079 49.152 37.5455L55.8017 33.735C56.4339 33.3725 56.4339 32.7823 55.8017 32.4199L53.4134 31.0629Z" fill="#032461"/>
<path d="M62.3309 24.0708C62.6752 24.2975 62.9619 24.6025 63.168 24.9612C63.374 25.3199 63.4937 25.7223 63.5172 26.1361V28.488C63.4937 28.9018 63.374 29.3042 63.168 29.6629C62.9619 30.0216 62.6752 30.3266 62.3309 30.5533L59.8712 32.0111C59.2202 32.3902 58.6897 32.0792 58.6897 31.3211V23.3516C58.6897 22.5935 59.2202 22.2826 59.8712 22.6616L62.3309 24.0708Z" fill="#032461"/>
<path d="M62.3627 31.0629C62.7342 30.8841 63.1447 30.7909 63.5609 30.7909C63.9772 30.7909 64.3877 30.8841 64.7592 31.0629L66.8042 32.1783C67.1521 32.3953 67.4415 32.6871 67.6492 33.0301C67.8569 33.3731 67.9771 33.7578 68 34.1532V36.8856C68 37.6105 67.4631 37.9079 66.8042 37.5455L59.8735 33.735C59.2146 33.3725 59.2146 32.7823 59.8735 32.4199L62.3627 31.0629Z" fill="#032461"/>
<path d="M52.2434 41.2283C52.6 41.4069 52.994 41.5 53.3937 41.5C53.7933 41.5 54.1873 41.4069 54.544 41.2283L56.5072 40.1099C56.8413 39.8922 57.1191 39.5999 57.3185 39.2566C57.5178 38.9132 57.6331 38.5284 57.6552 38.133V35.4042C57.6552 34.6802 57.1398 34.3833 56.5072 34.7452L49.8537 38.5506C49.2212 38.9126 49.2212 39.502 49.8537 39.8639L52.2434 41.2283Z" fill="#032461"/>
<path d="M58 38.1352C58.0233 38.5297 58.1437 38.9135 58.3513 39.2558C58.559 39.5981 58.8482 39.8893 59.1958 40.1062L61.2409 41.2285C61.6123 41.407 62.0228 41.5 62.4391 41.5C62.8554 41.5 63.2658 41.407 63.6373 41.2285L66.1265 39.8604C66.7854 39.4987 66.7854 38.9097 66.1265 38.548L59.1958 34.7451C58.5369 34.3834 58 34.6802 58 35.4037V38.1352Z" fill="#032461"/>
</g>
<g id="Name">
<text id="Nexus Technologies" fill="#111827" style="white-space: pre" xml:space="preserve" font-family="Inter" font-size="12" font-weight="bold" letter-spacing="0px"><tspan x="75.4399" y="36.3636">Nexus Technologies</tspan></text>
</g>
</g>
<g id="ADA logo + text">
<g id="Text">
<text id="Contractor check-in" fill="#111827" style="white-space: pre" xml:space="preserve" font-family="Inter" font-size="14" font-weight="bold" letter-spacing="0em"><tspan x="472.72" y="37.0909">Contractor check-in</tspan></text>
</g>
</g>
<g id="Date &#38; time">
<g id="Date">
<text id="16 March, Monday" fill="#111827" style="white-space: pre" xml:space="preserve" font-family="Inter" font-size="6.8" letter-spacing="0em"><tspan x="890.663" y="30.4727">16 March,&#10;</tspan><tspan x="896.208" y="38.4727">Monday</tspan></text>
</g>
<path id="divider_2" d="M930 24.25V39.75" stroke="#E5E7EB" stroke-linecap="round"/>
<g id="Time">
<text id="09:57" fill="#111827" style="white-space: pre" xml:space="preserve" font-family="Inter" font-size="14" font-weight="bold" letter-spacing="-0.62px"><tspan x="938.08" y="36.7709">09:57</tspan></text>
</g>
</g>
</g>
</g>
</g>
<defs>
<clipPath id="clip0_23_244">
<rect width="1024" height="768" fill="white"/>
</clipPath>
<clipPath id="clip1_23_244">
<rect width="423.5" height="17" fill="white" transform="translate(62.5 508.5)"/>
</clipPath>
<clipPath id="clip2_23_244">
<rect width="423.5" height="17" fill="white" transform="translate(537 508.5)"/>
</clipPath>
</defs>
</svg>
