<svg width="1024" height="768" viewBox="0 0 1024 768" fill="none" xmlns="http://www.w3.org/2000/svg">
<rect width="1024" height="768" fill="#1E1E1E"/>
<g id="New Contractors">
<path d="M-1725 -234C-1725 -235.105 -1724.1 -236 -1723 -236H8515C8516.1 -236 8517 -235.105 8517 -234V1333C8517 1334.1 8516.1 1335 8515 1335H-1723C-1724.1 1335 -1725 1334.1 -1725 1333V-234Z" fill="#37393C"/>
<path d="M-1723 -236V-235H8515V-236V-237H-1723V-236ZM8517 -234H8516V1333H8517H8518V-234H8517ZM8515 1335V1334H-1723V1335V1336H8515V1335ZM-1725 1333H-1724V-234H-1725H-1726V1333H-1725ZM-1723 1335V1334C-1723.55 1334 -1724 1333.55 -1724 1333H-1725H-1726C-1726 1334.66 -1724.66 1336 -1723 1336V1335ZM8517 1333H8516C8516 1333.55 8515.55 1334 8515 1334V1335V1336C8516.66 1336 8518 1334.66 8518 1333H8517ZM8515 -236V-235C8515.55 -235 8516 -234.552 8516 -234H8517H8518C8518 -235.657 8516.66 -237 8515 -237V-236ZM-1723 -236V-237C-1724.66 -237 -1726 -235.657 -1726 -234H-1725H-1724C-1724 -234.552 -1723.55 -235 -1723 -235V-236Z" fill="white" fill-opacity="0.1"/>
<g id="Select check-in type" clip-path="url(#clip0_23_244)">
<rect width="1024" height="768" fill="#F8F9FB"/>
<g id="Content container">
<g id="Title + Type selector">
<g id="Title">
<g id="Title text">
<text id="Select your check-in type" fill="#032461" style="white-space: pre" xml:space="preserve" font-family="Inter" font-size="38" font-weight="bold" letter-spacing="0px"><tspan x="273.869" y="147.636">Select your check-in type</tspan></text>
</g>
<g id="Subtext container">
<text id="Subtext" fill="#111827" style="white-space: pre" xml:space="preserve" font-family="Inter" font-size="16" letter-spacing="0px"><tspan x="345.734" y="189.818">Please select your check-in type to proceed</tspan></text>
</g>
</g>
<g id="User type container">
<g id="Check-in type - Visitor">
<rect x="195" y="245" width="308" height="236" rx="15" fill="white"/>
<rect x="195" y="245" width="308" height="236" rx="15" stroke="#E5E7EB" stroke-width="2"/>
<g id="Icon">
<rect x="325" y="303" width="48" height="48" rx="14" fill="#F3F4F6"/>
<g id="Component 1">
<path id="Vector" d="M349 327.857C351.367 327.857 353.286 325.938 353.286 323.571C353.286 321.204 351.367 319.286 349 319.286C346.633 319.286 344.714 321.204 344.714 323.571C344.714 325.938 346.633 327.857 349 327.857Z" stroke="#0846C3" stroke-width="1.71429"/>
<path id="Vector_2" d="M341.286 336.429C341.286 331.714 344.714 328.714 349 328.714C353.286 328.714 356.714 331.714 356.714 336.429" stroke="#0846C3" stroke-width="1.71429" stroke-linecap="round"/>
</g>
</g>
<g id="Type + subtext">
<g id="Type">
<text id="Visitor" fill="#111827" style="white-space: pre" xml:space="preserve" font-family="Inter" font-size="22" font-weight="bold" letter-spacing="0px"><tspan x="313.143" y="387.5">Visitor</tspan></text>
</g>
<g id="Sub text">
<text id="For meetings, deliveries" fill="#6B7280" style="white-space: pre" xml:space="preserve" font-family="Inter" font-size="16" letter-spacing="0px"><tspan x="259.242" y="416.818">For meetings, deliveries</tspan></text>
</g>
</g>
</g>
<g id="Check-in type - Contractor">
<rect x="521" y="245" width="308" height="236" rx="15" fill="white"/>
<rect x="521" y="245" width="308" height="236" rx="15" stroke="#E5E7EB" stroke-width="2"/>
<g id="Icon_2">
<rect x="651" y="303" width="48" height="48" rx="14" fill="#F3F4F6"/>
<g id="healthicons:construction-worker-outline">
<g id="Group">
<path id="Vector_3" fill-rule="evenodd" clip-rule="evenodd" d="M680.378 320.706L680.325 320.665C680.224 319.899 679.857 319.1 679.285 318.427C678.354 317.333 676.838 316.5 674.808 316.5C672.807 316.5 671.397 317.412 670.565 318.543C670.177 319.067 669.899 319.663 669.75 320.298C669.723 320.416 669.701 320.536 669.685 320.657L669.622 320.705C668.966 321.213 668.485 321.829 668.599 322.536C668.709 323.218 669.326 323.634 669.9 323.887C670.046 323.952 670.203 324.013 670.371 324.069C670.286 324.727 670.343 325.395 670.537 326.029C670.731 326.663 671.058 327.248 671.496 327.746C671.934 328.244 672.473 328.642 673.077 328.915C673.681 329.188 674.336 329.33 674.999 329.33C675.662 329.33 676.318 329.188 676.922 328.915C677.526 328.642 678.065 328.244 678.503 327.746C678.941 327.248 679.268 326.663 679.462 326.029C679.656 325.395 679.713 324.727 679.628 324.069C679.796 324.013 679.953 323.952 680.099 323.887C680.673 323.634 681.29 323.218 681.4 322.536C681.514 321.829 681.033 321.213 680.377 320.705M670.884 321.558C670.808 321.34 670.788 320.989 670.887 320.556C670.984 320.133 671.184 319.669 671.499 319.24V320.875C671.499 321.03 671.561 321.178 671.67 321.287C671.78 321.397 671.928 321.458 672.083 321.458C672.238 321.458 672.386 321.397 672.495 321.287C672.605 321.178 672.666 321.03 672.666 320.875V318.197C673.146 317.924 673.727 317.734 674.416 317.681V319.708C674.416 319.863 674.478 320.011 674.587 320.121C674.696 320.23 674.845 320.292 674.999 320.292C675.154 320.292 675.303 320.23 675.412 320.121C675.521 320.011 675.583 319.863 675.583 319.708V317.717C676.199 317.795 676.793 317.993 677.333 318.301V320.875C677.333 321.03 677.394 321.178 677.504 321.287C677.613 321.397 677.761 321.458 677.916 321.458C678.071 321.458 678.219 321.397 678.329 321.287C678.438 321.178 678.499 321.03 678.499 320.875V319.31C679.144 320.136 679.295 321.028 679.114 321.563C679.069 321.695 679.073 321.839 679.125 321.969C679.178 322.099 679.275 322.205 679.399 322.269C679.524 322.333 679.667 322.35 679.803 322.317C679.939 322.285 680.058 322.204 680.14 322.091C680.255 322.251 680.251 322.336 680.248 322.35C680.241 322.396 680.151 322.589 679.627 322.821C679.4 322.921 679.129 323.012 678.825 323.092L678.811 323.095C678.481 323.18 678.114 323.253 677.722 323.312C676.994 323.417 676.26 323.477 675.524 323.493C675.019 323.506 674.513 323.5 674.008 323.477C673.427 323.45 672.847 323.395 672.272 323.311C671.907 323.258 671.545 323.186 671.188 323.095L671.174 323.092C670.9 323.023 670.632 322.933 670.372 322.821C669.847 322.589 669.758 322.396 669.751 322.35C669.748 322.336 669.744 322.251 669.859 322.091C669.941 322.205 670.061 322.285 670.197 322.318C670.334 322.351 670.478 322.333 670.602 322.269C670.727 322.204 670.824 322.097 670.875 321.966C670.927 321.836 670.93 321.691 670.884 321.559M671.512 324.364C671.706 324.402 671.906 324.436 672.112 324.467C672.735 324.561 673.406 324.62 674.088 324.648C674.697 324.673 675.306 324.673 675.914 324.648C676.593 324.62 677.262 324.561 677.882 324.467C678.089 324.437 678.291 324.402 678.487 324.364C678.528 324.847 678.469 325.333 678.312 325.792C678.156 326.251 677.906 326.673 677.578 327.03C677.25 327.387 676.852 327.672 676.408 327.868C675.964 328.063 675.484 328.163 674.999 328.163C674.515 328.163 674.035 328.063 673.591 327.868C673.147 327.672 672.749 327.387 672.421 327.03C672.093 326.673 671.843 326.251 671.687 325.792C671.53 325.333 671.471 324.847 671.512 324.364Z" fill="#0846C3"/>
<path id="Vector_4" fill-rule="evenodd" clip-rule="evenodd" d="M677.917 329.619C678.3 329.686 678.691 329.764 679.083 329.854C682.258 330.579 685.5 332.028 685.5 334V337.5H664.5V334C664.5 332.028 667.742 330.579 670.917 329.854C671.303 329.766 671.693 329.687 672.083 329.619V332.25H677.917V329.619ZM669.75 331.369C670.131 331.252 670.523 331.147 670.917 331.052V333.417H679.083V331.052C679.674 331.193 680.258 331.362 680.833 331.559V336.333H682V332.015C682.17 332.09 682.333 332.168 682.489 332.248C683.152 332.585 683.644 332.932 683.955 333.265C684.262 333.592 684.333 333.833 684.333 334V336.333H665.667V334C665.667 333.833 665.738 333.592 666.045 333.265C666.356 332.932 666.848 332.585 667.511 332.248C667.843 332.078 668.203 331.92 668.583 331.772V336.333H669.75V331.369Z" fill="#0846C3"/>
</g>
</g>
</g>
<g id="Type + subtext_2">
<g id="Type_2">
<text id="Contractor" fill="#111827" style="white-space: pre" xml:space="preserve" font-family="Inter" font-size="22" font-weight="bold" letter-spacing="0px"><tspan x="616.24" y="387.5">Contractor</tspan></text>
</g>
<g id="Subtext_2">
<text id="For work orders &#38;maintenance" fill="#6B7280" style="white-space: pre" xml:space="preserve" font-family="Inter" font-size="16" letter-spacing="0px"><tspan x="559.609" y="416.818">For work orders &#38;maintenance</tspan></text>
</g>
</g>
</g>
</g>
</g>
</g>
<g id="Nav bar ">
<mask id="path-17-inside-1_23_244" fill="white">
<path d="M0 0H1024V64H0V0Z"/>
</mask>
<path d="M0 0H1024V64H0V0Z" fill="white"/>
<path d="M1024 64V63H0V64V65H1024V64Z" fill="#E5E7EB" mask="url(#path-17-inside-1_23_244)"/>
<g id="Company logo">
<g id="Vector_5">
<path d="M53.6692 24.0708C53.3248 24.2975 53.0381 24.6025 52.832 24.9612C52.626 25.3199 52.5063 25.7223 52.4828 26.1361V28.488C52.5063 28.9018 52.626 29.3042 52.832 29.6629C53.0381 30.0216 53.3248 30.3266 53.6692 30.5533L56.124 32.0111C56.775 32.3902 57.3103 32.0792 57.3103 31.3211V23.3516C57.3103 22.5935 56.775 22.2826 56.124 22.6616L53.6692 24.0708Z" fill="#032461"/>
<path d="M53.4134 31.0629C53.057 30.8841 52.6632 30.7909 52.2638 30.7909C51.8644 30.7909 51.4706 30.8841 51.1141 31.0629L49.152 32.1783C48.8177 32.395 48.5392 32.6867 48.3391 33.0297C48.1391 33.3727 48.0229 33.7575 48 34.1532V36.8856C48 37.6105 48.5198 37.9079 49.152 37.5455L55.8017 33.735C56.4339 33.3725 56.4339 32.7823 55.8017 32.4199L53.4134 31.0629Z" fill="#032461"/>
<path d="M62.3309 24.0708C62.6752 24.2975 62.9619 24.6025 63.168 24.9612C63.374 25.3199 63.4937 25.7223 63.5172 26.1361V28.488C63.4937 28.9018 63.374 29.3042 63.168 29.6629C62.9619 30.0216 62.6752 30.3266 62.3309 30.5533L59.8712 32.0111C59.2202 32.3902 58.6897 32.0792 58.6897 31.3211V23.3516C58.6897 22.5935 59.2202 22.2826 59.8712 22.6616L62.3309 24.0708Z" fill="#032461"/>
<path d="M62.3627 31.0629C62.7342 30.8841 63.1447 30.7909 63.5609 30.7909C63.9772 30.7909 64.3877 30.8841 64.7592 31.0629L66.8042 32.1783C67.1521 32.3953 67.4415 32.6871 67.6492 33.0301C67.8569 33.3731 67.9771 33.7578 68 34.1532V36.8856C68 37.6105 67.4631 37.9079 66.8042 37.5455L59.8735 33.735C59.2146 33.3725 59.2146 32.7823 59.8735 32.4199L62.3627 31.0629Z" fill="#032461"/>
<path d="M52.2434 41.2283C52.6 41.4069 52.994 41.5 53.3937 41.5C53.7933 41.5 54.1873 41.4069 54.544 41.2283L56.5072 40.1099C56.8413 39.8922 57.1191 39.5999 57.3185 39.2566C57.5178 38.9132 57.6331 38.5284 57.6552 38.133V35.4042C57.6552 34.6802 57.1398 34.3833 56.5072 34.7452L49.8537 38.5506C49.2212 38.9126 49.2212 39.502 49.8537 39.8639L52.2434 41.2283Z" fill="#032461"/>
<path d="M58 38.1352C58.0233 38.5297 58.1437 38.9135 58.3513 39.2558C58.559 39.5981 58.8482 39.8893 59.1958 40.1062L61.2409 41.2285C61.6123 41.407 62.0228 41.5 62.4391 41.5C62.8554 41.5 63.2658 41.407 63.6373 41.2285L66.1265 39.8604C66.7854 39.4987 66.7854 38.9097 66.1265 38.548L59.1958 34.7451C58.5369 34.3834 58 34.6802 58 35.4037V38.1352Z" fill="#032461"/>
</g>
<g id="Name">
<text id="Nexus Technologies" fill="#111827" style="white-space: pre" xml:space="preserve" font-family="Inter" font-size="12" font-weight="bold" letter-spacing="0px"><tspan x="75.4399" y="36.3636">Nexus Technologies</tspan></text>
</g>
</g>
<g id="ADA logo + text">
<g id="Text">
<text id="Check-in" fill="#111827" style="white-space: pre" xml:space="preserve" font-family="Inter" font-size="14" font-weight="bold" letter-spacing="0em"><tspan x="510.72" y="37.0909">Check-in</tspan></text>
</g>
</g>
<g id="Date &#38; time">
<g id="Date">
<text id="16 March, Monday" fill="#111827" style="white-space: pre" xml:space="preserve" font-family="Inter" font-size="6.8" letter-spacing="0em"><tspan x="890.663" y="30.4727">16 March,&#10;</tspan><tspan x="896.208" y="38.4727">Monday</tspan></text>
</g>
<path id="divider" d="M930 24.25V39.75" stroke="#E5E7EB" stroke-linecap="round"/>
<g id="Time">
<text id="09:57" fill="#111827" style="white-space: pre" xml:space="preserve" font-family="Inter" font-size="14" font-weight="bold" letter-spacing="-0.62px"><tspan x="938.08" y="36.7709">09:57</tspan></text>
</g>
</g>
</g>
<g id="CTA container">
<rect x="0.5" y="696.5" width="1023" height="71" fill="white"/>
<rect x="0.5" y="696.5" width="1023" height="71" stroke="#E5E7EB"/>
<g id="Secondary button">
<mask id="path-26-inside-2_23_244" fill="white">
<path d="M48 720C48 714.477 52.4772 710 58 710H153C158.523 710 163 714.477 163 720V744C163 749.523 158.523 754 153 754H58C52.4772 754 48 749.523 48 744V720Z"/>
</mask>
<path d="M58 710V711H153V710V709H58V710ZM163 720H162V744H163H164V720H163ZM153 754V753H58V754V755H153V754ZM48 744H49V720H48H47V744H48ZM58 754V753C53.0294 753 49 748.971 49 744H48H47C47 750.075 51.9249 755 58 755V754ZM163 744H162C162 748.971 157.971 753 153 753V754V755C159.075 755 164 750.075 164 744H163ZM153 710V711C157.971 711 162 715.029 162 720H163H164C164 713.925 159.075 709 153 709V710ZM58 710V709C51.9249 709 47 713.925 47 720H48H49C49 715.029 53.0294 711 58 711V710Z" fill="#E5E7EB" mask="url(#path-26-inside-2_23_244)"/>
<text id="Go Back" fill="#6B7280" style="white-space: pre" xml:space="preserve" font-family="Inter" font-size="16" font-weight="600" letter-spacing="0px"><tspan x="73.5859" y="737.818">Go Back</tspan></text>
</g>
<g id="ADA logo + text_2">
<g id="text">
<text id="Powered by" fill="#6B7280" style="white-space: pre" xml:space="preserve" font-family="Inter" font-size="12" letter-spacing="0px"><tspan x="881.52" y="736.364">Powered by</tspan></text>
</g>
<g id="Logo">
<text id="ADA" fill="#111827" style="white-space: pre" xml:space="preserve" font-family="Inter" font-size="12" letter-spacing="0px"><tspan x="951" y="736.364">ADA</tspan></text>
</g>
</g>
</g>
</g>
</g>
<defs>
<clipPath id="clip0_23_244">
<rect width="1024" height="768" fill="white"/>
</clipPath>
</defs>
</svg>
