<svg width="1024" height="768" viewBox="0 0 1024 768" fill="none" xmlns="http://www.w3.org/2000/svg">
<rect width="1024" height="768" fill="#1E1E1E"/>
<g id="User types">
<path d="M-100 -98C-100 -99.1046 -99.1046 -100 -98 -100H4494C4495.1 -100 4496 -99.1046 4496 -98V866C4496 867.105 4495.1 868 4494 868H-97.9999C-99.1045 868 -100 867.105 -100 866V-98Z" fill="#444444"/>
<path d="M-98 -100V-99H4494V-100V-101H-98V-100ZM4496 -98H4495V866H4496H4497V-98H4496ZM4494 868V867H-97.9999V868V869H4494V868ZM-100 866H-99V-98H-100H-101V866H-100ZM-97.9999 868V867C-98.5523 867 -99 866.552 -99 866H-100H-101C-101 867.657 -99.6568 869 -97.9999 869V868ZM4496 866H4495C4495 866.552 4494.55 867 4494 867V868V869C4495.66 869 4497 867.657 4497 866H4496ZM4494 -100V-99C4494.55 -99 4495 -98.5522 4495 -98H4496H4497C4497 -99.6569 4495.66 -101 4494 -101V-100ZM-98 -100V-101C-99.6569 -101 -101 -99.6568 -101 -98H-100H-99C-99 -98.5523 -98.5523 -99 -98 -99V-100Z" fill="white" fill-opacity="0.1"/>
<g id="Visitor check-in" clip-path="url(#clip0_22_397)">
<rect width="1024" height="768" fill="#F3F4F6"/>
<g id="Menu options">
<rect width="384" height="768" fill="#010C20"/>
<g id="Title text">
<text id="Who is checking in?" fill="#EBF1FC" style="white-space: pre" xml:space="preserve" font-family="Inter" font-size="26" font-weight="bold" letter-spacing="0px"><tspan x="40" y="84.9091">Who is checking in?</tspan></text>
<text id="Select a scenario to experience the check-in flow for a specific user type" fill="#EBF1FC" style="white-space: pre" xml:space="preserve" font-family="Inter" font-size="14" letter-spacing="0px"><tspan x="40" y="124.591">Select a scenario to experience the check-in </tspan><tspan x="40" y="145.591">flow for a specific user type</tspan></text>
</g>
<g id="Frame 1">
<g id="Nav menu">
<rect x="40" y="223" width="304" height="76" rx="14" fill="#F8F9FB"/>
<g id="icon container ">
<rect x="64" y="239" width="44" height="44" rx="12" fill="#0846C3" fill-opacity="0.1"/>
<g id="Component 1">
<path id="Vector" d="M86 261C88.2091 261 90 259.209 90 257C90 254.791 88.2091 253 86 253C83.7909 253 82 254.791 82 257C82 259.209 83.7909 261 86 261Z" stroke="#0846C3" stroke-width="2"/>
<path id="Vector_2" d="M78 270C78 265.6 81.6 262 86 262C90.4 262 94 265.6 94 270" stroke="#0846C3" stroke-width="2" stroke-linecap="round"/>
</g>
</g>
<text id="Visitor check-in_2" fill="#0846C3" style="white-space: pre" xml:space="preserve" font-family="Inter" font-size="16" font-weight="600" letter-spacing="0em"><tspan x="124" y="266.818">Visitor check-in</tspan></text>
<path id="Vector 1" d="M41 232V291" stroke="#0846C3" stroke-width="3" stroke-linecap="round"/>
</g>
<g id="Nav menu_2">
<g id="icon container _2">
<rect x="64" y="331" width="44" height="44" rx="12" fill="#0846C3" fill-opacity="0.22"/>
<g id="healthicons:construction-worker-outline">
<g id="Group">
<path id="Vector_3" fill-rule="evenodd" clip-rule="evenodd" d="M91.3776 346.706L91.3251 346.665C91.2241 345.898 90.8572 345.1 90.2844 344.427C89.354 343.333 87.8373 342.5 85.8073 342.5C83.8065 342.5 82.3966 343.412 81.5647 344.543C81.1765 345.067 80.8992 345.663 80.7498 346.297C80.7227 346.416 80.7009 346.536 80.6845 346.657L80.6215 346.705C79.9658 347.213 79.4846 347.829 79.5989 348.536C79.7086 349.218 80.3257 349.634 80.8997 349.887C81.0459 349.952 81.2029 350.013 81.3705 350.069C81.2861 350.727 81.3429 351.395 81.5369 352.029C81.7309 352.663 82.0578 353.248 82.4958 353.746C82.9337 354.244 83.4727 354.642 84.0768 354.915C84.6809 355.188 85.3363 355.33 85.9992 355.33C86.6622 355.33 87.3175 355.188 87.9216 354.915C88.5257 354.642 89.0647 354.244 89.5027 353.746C89.9406 353.248 90.2675 352.663 90.4615 352.029C90.6556 351.395 90.7123 350.727 90.628 350.069C90.7956 350.013 90.9525 349.952 91.0987 349.887C91.6727 349.634 92.2893 349.218 92.3996 348.536C92.5139 347.829 92.0326 347.213 91.377 346.705M81.8838 347.558C81.808 347.34 81.7881 346.989 81.8867 346.556C81.9836 346.133 82.1842 345.669 82.4992 345.24V346.875C82.4992 347.03 82.5607 347.178 82.6701 347.287C82.7795 347.397 82.9278 347.458 83.0826 347.458C83.2373 347.458 83.3856 347.397 83.495 347.287C83.6044 347.178 83.6659 347.03 83.6659 346.875V344.197C84.146 343.924 84.7264 343.734 85.4159 343.681V345.708C85.4159 345.863 85.4773 346.011 85.5867 346.121C85.6961 346.23 85.8445 346.292 85.9992 346.292C86.1539 346.292 86.3023 346.23 86.4117 346.121C86.5211 346.011 86.5826 345.863 86.5826 345.708V343.717C87.1985 343.795 87.7932 343.993 88.3326 344.301V346.875C88.3326 347.03 88.394 347.178 88.5034 347.287C88.6128 347.397 88.7612 347.458 88.9159 347.458C89.0706 347.458 89.219 347.397 89.3284 347.287C89.4378 347.178 89.4992 347.03 89.4992 346.875V345.31C90.1438 346.136 90.2949 347.028 90.1135 347.563C90.0685 347.695 90.0726 347.839 90.125 347.969C90.1774 348.099 90.2746 348.205 90.399 348.269C90.5233 348.333 90.6665 348.35 90.8024 348.317C90.9383 348.285 91.058 348.204 91.1396 348.091C91.2545 348.251 91.2504 348.336 91.2481 348.35C91.2405 348.396 91.1512 348.589 90.6268 348.821C90.3993 348.921 90.1286 349.012 89.8247 349.092L89.8107 349.095C89.4811 349.18 89.1142 349.253 88.7216 349.312C87.9935 349.417 87.2597 349.477 86.5242 349.493C86.0186 349.506 85.5127 349.5 85.0076 349.477C84.4265 349.45 83.8471 349.395 83.2716 349.311C82.9067 349.258 82.545 349.186 82.1877 349.095L82.1737 349.092C81.8995 349.023 81.6313 348.933 81.3716 348.821C80.8472 348.589 80.758 348.396 80.7504 348.35C80.7481 348.336 80.744 348.251 80.8589 348.091C80.9406 348.205 81.0607 348.285 81.1972 348.318C81.3336 348.351 81.4773 348.333 81.6018 348.269C81.7263 348.204 81.8234 348.097 81.8752 347.966C81.927 347.836 81.93 347.691 81.8838 347.559M82.5121 350.364C82.7061 350.402 82.906 350.436 83.1117 350.467C83.7347 350.561 84.4056 350.62 85.0881 350.648C85.6964 350.673 86.3055 350.673 86.9139 350.648C87.5929 350.62 88.2614 350.561 88.8815 350.467C89.0891 350.437 89.2908 350.402 89.4864 350.364C89.5279 350.847 89.4685 351.333 89.3121 351.792C89.1557 352.251 88.9056 352.673 88.5778 353.03C88.2499 353.387 87.8514 353.672 87.4075 353.868C86.9637 354.063 86.4841 354.163 85.9992 354.163C85.5144 354.163 85.0348 354.063 84.5909 353.868C84.147 353.672 83.7485 353.387 83.4206 353.03C83.0928 352.673 82.8427 352.251 82.6863 351.792C82.5299 351.333 82.4706 350.847 82.5121 350.364Z" fill="#EBF1FC"/>
<path id="Vector_4" fill-rule="evenodd" clip-rule="evenodd" d="M88.9167 355.619C89.3005 355.686 89.6913 355.764 90.0833 355.854C93.2584 356.579 96.5 358.028 96.5 360V363.5H75.5V360C75.5 358.028 78.7416 356.579 81.9167 355.854C82.3035 355.766 82.6925 355.687 83.0833 355.619V358.25H88.9167V355.619ZM80.75 357.369C81.1315 357.252 81.5229 357.147 81.9167 357.052V359.417H90.0833V357.052C90.6743 357.193 91.2583 357.362 91.8333 357.559V362.333H93V358.015C93.1696 358.09 93.3325 358.168 93.4888 358.248C94.1521 358.585 94.6438 358.932 94.9553 359.265C95.2616 359.592 95.3333 359.833 95.3333 360V362.333H76.6667V360C76.6667 359.833 76.7384 359.592 77.0447 359.265C77.3562 358.932 77.8479 358.585 78.5112 358.248C78.8431 358.078 79.203 357.92 79.5833 357.772V362.333H80.75V357.369Z" fill="#EBF1FC"/>
</g>
</g>
</g>
<text id="Visitor check-in_3" fill="#EBF1FC" style="white-space: pre" xml:space="preserve" font-family="Inter" font-size="16" font-weight="600" letter-spacing="0em"><tspan x="124" y="349.318">Returning contractor &#10;</tspan><tspan x="124" y="368.318">/ pre-onboarded</tspan></text>
</g>
<g id="Nav menu_3">
<g id="icon container _3">
<rect x="64" y="423" width="44" height="44" rx="12" fill="#0846C3" fill-opacity="0.22"/>
<g id="healthicons:construction-worker-outline_2">
<g id="Group_2">
<path id="Vector_5" fill-rule="evenodd" clip-rule="evenodd" d="M91.3776 438.706L91.3251 438.665C91.2241 437.898 90.8572 437.1 90.2844 436.427C89.354 435.333 87.8373 434.5 85.8073 434.5C83.8065 434.5 82.3966 435.412 81.5647 436.543C81.1765 437.067 80.8992 437.663 80.7498 438.297C80.7227 438.416 80.7009 438.536 80.6845 438.657L80.6215 438.705C79.9658 439.213 79.4846 439.829 79.5989 440.536C79.7086 441.218 80.3257 441.634 80.8997 441.887C81.0459 441.952 81.2029 442.013 81.3705 442.069C81.2861 442.727 81.3429 443.395 81.5369 444.029C81.7309 444.663 82.0578 445.248 82.4958 445.746C82.9337 446.244 83.4727 446.642 84.0768 446.915C84.6809 447.188 85.3363 447.33 85.9992 447.33C86.6622 447.33 87.3175 447.188 87.9216 446.915C88.5257 446.642 89.0647 446.244 89.5027 445.746C89.9406 445.248 90.2675 444.663 90.4615 444.029C90.6556 443.395 90.7123 442.727 90.628 442.069C90.7956 442.013 90.9525 441.952 91.0987 441.887C91.6727 441.634 92.2893 441.218 92.3996 440.536C92.5139 439.829 92.0326 439.213 91.377 438.705M81.8838 439.558C81.808 439.34 81.7881 438.989 81.8867 438.556C81.9836 438.133 82.1842 437.669 82.4992 437.24V438.875C82.4992 439.03 82.5607 439.178 82.6701 439.287C82.7795 439.397 82.9278 439.458 83.0826 439.458C83.2373 439.458 83.3856 439.397 83.495 439.287C83.6044 439.178 83.6659 439.03 83.6659 438.875V436.197C84.146 435.924 84.7264 435.734 85.4159 435.681V437.708C85.4159 437.863 85.4773 438.011 85.5867 438.121C85.6961 438.23 85.8445 438.292 85.9992 438.292C86.1539 438.292 86.3023 438.23 86.4117 438.121C86.5211 438.011 86.5826 437.863 86.5826 437.708V435.717C87.1985 435.795 87.7932 435.993 88.3326 436.301V438.875C88.3326 439.03 88.394 439.178 88.5034 439.287C88.6128 439.397 88.7612 439.458 88.9159 439.458C89.0706 439.458 89.219 439.397 89.3284 439.287C89.4378 439.178 89.4992 439.03 89.4992 438.875V437.31C90.1438 438.136 90.2949 439.028 90.1135 439.563C90.0685 439.695 90.0726 439.839 90.125 439.969C90.1774 440.099 90.2746 440.205 90.399 440.269C90.5233 440.333 90.6665 440.35 90.8024 440.317C90.9383 440.285 91.058 440.204 91.1396 440.091C91.2545 440.251 91.2504 440.336 91.2481 440.35C91.2405 440.396 91.1512 440.589 90.6268 440.821C90.3993 440.921 90.1286 441.012 89.8247 441.092L89.8107 441.095C89.4811 441.18 89.1142 441.253 88.7216 441.312C87.9935 441.417 87.2597 441.477 86.5242 441.493C86.0186 441.506 85.5127 441.5 85.0076 441.477C84.4265 441.45 83.8471 441.395 83.2716 441.311C82.9067 441.258 82.545 441.186 82.1877 441.095L82.1737 441.092C81.8995 441.023 81.6313 440.933 81.3716 440.821C80.8472 440.589 80.758 440.396 80.7504 440.35C80.7481 440.336 80.744 440.251 80.8589 440.091C80.9406 440.205 81.0607 440.285 81.1972 440.318C81.3336 440.351 81.4773 440.333 81.6018 440.269C81.7263 440.204 81.8234 440.097 81.8752 439.966C81.927 439.836 81.93 439.691 81.8838 439.559M82.5121 442.364C82.7061 442.402 82.906 442.436 83.1117 442.467C83.7347 442.561 84.4056 442.62 85.0881 442.648C85.6964 442.673 86.3055 442.673 86.9139 442.648C87.5929 442.62 88.2614 442.561 88.8815 442.467C89.0891 442.437 89.2908 442.402 89.4864 442.364C89.5279 442.847 89.4685 443.333 89.3121 443.792C89.1557 444.251 88.9056 444.673 88.5778 445.03C88.2499 445.387 87.8514 445.672 87.4075 445.868C86.9637 446.063 86.4841 446.163 85.9992 446.163C85.5144 446.163 85.0348 446.063 84.5909 445.868C84.147 445.672 83.7485 445.387 83.4206 445.03C83.0928 444.673 82.8427 444.251 82.6863 443.792C82.5299 443.333 82.4706 442.847 82.5121 442.364Z" fill="#EBF1FC"/>
<path id="Vector_6" fill-rule="evenodd" clip-rule="evenodd" d="M88.9167 447.619C89.3005 447.686 89.6913 447.764 90.0833 447.854C93.2584 448.579 96.5 450.028 96.5 452V455.5H75.5V452C75.5 450.028 78.7416 448.579 81.9167 447.854C82.3035 447.766 82.6925 447.687 83.0833 447.619V450.25H88.9167V447.619ZM80.75 449.369C81.1315 449.252 81.5229 449.147 81.9167 449.052V451.417H90.0833V449.052C90.6743 449.193 91.2583 449.362 91.8333 449.559V454.333H93V450.015C93.1696 450.09 93.3325 450.168 93.4888 450.248C94.1521 450.585 94.6438 450.932 94.9553 451.265C95.2616 451.592 95.3333 451.833 95.3333 452V454.333H76.6667V452C76.6667 451.833 76.7384 451.592 77.0447 451.265C77.3562 450.932 77.8479 450.585 78.5112 450.248C78.8431 450.078 79.203 449.92 79.5833 449.772V454.333H80.75V449.369Z" fill="#EBF1FC"/>
</g>
</g>
</g>
<text id="Visitor check-in_4" fill="#EBF1FC" style="white-space: pre" xml:space="preserve" font-family="Inter" font-size="16" font-weight="600" letter-spacing="0em"><tspan x="124" y="450.818">Incomplete contractor</tspan></text>
</g>
<g id="Nav menu_4">
<g id="icon container _4">
<rect x="64" y="515" width="44" height="44" rx="12" fill="#0846C3" fill-opacity="0.22"/>
<g id="healthicons:construction-worker-outline_3">
<g id="Group_3">
<path id="Vector_7" fill-rule="evenodd" clip-rule="evenodd" d="M91.3776 530.706L91.3251 530.665C91.2241 529.898 90.8572 529.1 90.2844 528.427C89.354 527.333 87.8373 526.5 85.8073 526.5C83.8065 526.5 82.3966 527.412 81.5647 528.543C81.1765 529.067 80.8992 529.663 80.7498 530.297C80.7227 530.416 80.7009 530.536 80.6845 530.657L80.6215 530.705C79.9658 531.213 79.4846 531.829 79.5989 532.536C79.7086 533.218 80.3257 533.634 80.8997 533.887C81.0459 533.952 81.2029 534.013 81.3705 534.069C81.2861 534.727 81.3429 535.395 81.5369 536.029C81.7309 536.663 82.0578 537.248 82.4958 537.746C82.9337 538.244 83.4727 538.642 84.0768 538.915C84.6809 539.188 85.3363 539.33 85.9992 539.33C86.6622 539.33 87.3175 539.188 87.9216 538.915C88.5257 538.642 89.0647 538.244 89.5027 537.746C89.9406 537.248 90.2675 536.663 90.4615 536.029C90.6556 535.395 90.7123 534.727 90.628 534.069C90.7956 534.013 90.9525 533.952 91.0987 533.887C91.6727 533.634 92.2893 533.218 92.3996 532.536C92.5139 531.829 92.0326 531.213 91.377 530.705M81.8838 531.558C81.808 531.34 81.7881 530.989 81.8867 530.556C81.9836 530.133 82.1842 529.669 82.4992 529.24V530.875C82.4992 531.03 82.5607 531.178 82.6701 531.287C82.7795 531.397 82.9278 531.458 83.0826 531.458C83.2373 531.458 83.3856 531.397 83.495 531.287C83.6044 531.178 83.6659 531.03 83.6659 530.875V528.197C84.146 527.924 84.7264 527.734 85.4159 527.681V529.708C85.4159 529.863 85.4773 530.011 85.5867 530.121C85.6961 530.23 85.8445 530.292 85.9992 530.292C86.1539 530.292 86.3023 530.23 86.4117 530.121C86.5211 530.011 86.5826 529.863 86.5826 529.708V527.717C87.1985 527.795 87.7932 527.993 88.3326 528.301V530.875C88.3326 531.03 88.394 531.178 88.5034 531.287C88.6128 531.397 88.7612 531.458 88.9159 531.458C89.0706 531.458 89.219 531.397 89.3284 531.287C89.4378 531.178 89.4992 531.03 89.4992 530.875V529.31C90.1438 530.136 90.2949 531.028 90.1135 531.563C90.0685 531.695 90.0726 531.839 90.125 531.969C90.1774 532.099 90.2746 532.205 90.399 532.269C90.5233 532.333 90.6665 532.35 90.8024 532.317C90.9383 532.285 91.058 532.204 91.1396 532.091C91.2545 532.251 91.2504 532.336 91.2481 532.35C91.2405 532.396 91.1512 532.589 90.6268 532.821C90.3993 532.921 90.1286 533.012 89.8247 533.092L89.8107 533.095C89.4811 533.18 89.1142 533.253 88.7216 533.312C87.9935 533.417 87.2597 533.477 86.5242 533.493C86.0186 533.506 85.5127 533.5 85.0076 533.477C84.4265 533.45 83.8471 533.395 83.2716 533.311C82.9067 533.258 82.545 533.186 82.1877 533.095L82.1737 533.092C81.8995 533.023 81.6313 532.933 81.3716 532.821C80.8472 532.589 80.758 532.396 80.7504 532.35C80.7481 532.336 80.744 532.251 80.8589 532.091C80.9406 532.205 81.0607 532.285 81.1972 532.318C81.3336 532.351 81.4773 532.333 81.6018 532.269C81.7263 532.204 81.8234 532.097 81.8752 531.966C81.927 531.836 81.93 531.691 81.8838 531.559M82.5121 534.364C82.7061 534.402 82.906 534.436 83.1117 534.467C83.7347 534.561 84.4056 534.62 85.0881 534.648C85.6964 534.673 86.3055 534.673 86.9139 534.648C87.5929 534.62 88.2614 534.561 88.8815 534.467C89.0891 534.437 89.2908 534.402 89.4864 534.364C89.5279 534.847 89.4685 535.333 89.3121 535.792C89.1557 536.251 88.9056 536.673 88.5778 537.03C88.2499 537.387 87.8514 537.672 87.4075 537.868C86.9637 538.063 86.4841 538.163 85.9992 538.163C85.5144 538.163 85.0348 538.063 84.5909 537.868C84.147 537.672 83.7485 537.387 83.4206 537.03C83.0928 536.673 82.8427 536.251 82.6863 535.792C82.5299 535.333 82.4706 534.847 82.5121 534.364Z" fill="#EBF1FC"/>
<path id="Vector_8" fill-rule="evenodd" clip-rule="evenodd" d="M88.9167 539.619C89.3005 539.686 89.6913 539.764 90.0833 539.854C93.2584 540.579 96.5 542.028 96.5 544V547.5H75.5V544C75.5 542.028 78.7416 540.579 81.9167 539.854C82.3035 539.766 82.6925 539.687 83.0833 539.619V542.25H88.9167V539.619ZM80.75 541.369C81.1315 541.252 81.5229 541.147 81.9167 541.052V543.417H90.0833V541.052C90.6743 541.193 91.2583 541.362 91.8333 541.559V546.333H93V542.015C93.1696 542.09 93.3325 542.168 93.4888 542.248C94.1521 542.585 94.6438 542.932 94.9553 543.265C95.2616 543.592 95.3333 543.833 95.3333 544V546.333H76.6667V544C76.6667 543.833 76.7384 543.592 77.0447 543.265C77.3562 542.932 77.8479 542.585 78.5112 542.248C78.8431 542.078 79.203 541.92 79.5833 541.772V546.333H80.75V541.369Z" fill="#EBF1FC"/>
</g>
</g>
</g>
<text id="Visitor check-in_5" fill="#EBF1FC" style="white-space: pre" xml:space="preserve" font-family="Inter" font-size="16" font-weight="600" letter-spacing="0em"><tspan x="124" y="542.818">New / walk-in contractor</tspan></text>
</g>
</g>
</g>
<g id="Visitor checkin description">
<g id="User type + time container + CTA">
<g id="User type + time container">
<g id="Task time tag">
<g id="Text">
<rect x="450" y="231" width="193" height="36" rx="18" fill="white"/>
<g id="Group_4">
<path id="Vector_9" d="M476 239C481.523 239 486 243.477 486 249C486 254.523 481.523 259 476 259C470.477 259 466 254.523 466 249C466 243.477 470.477 239 476 239ZM476 241C473.878 241 471.843 241.843 470.343 243.343C468.843 244.843 468 246.878 468 249C468 251.122 468.843 253.157 470.343 254.657C471.843 256.157 473.878 257 476 257C478.122 257 480.157 256.157 481.657 254.657C483.157 253.157 484 251.122 484 249C484 246.878 483.157 244.843 481.657 243.343C480.157 241.843 478.122 241 476 241ZM476 243C476.245 243 476.481 243.09 476.664 243.253C476.847 243.415 476.964 243.64 476.993 243.883L477 244V248.586L479.707 251.293C479.886 251.473 479.99 251.714 479.998 251.968C480.006 252.222 479.917 252.47 479.749 252.66C479.581 252.851 479.346 252.97 479.094 252.994C478.841 253.018 478.588 252.945 478.387 252.79L478.293 252.707L475.293 249.707C475.138 249.551 475.038 249.349 475.009 249.131L475 249V244C475 243.735 475.105 243.48 475.293 243.293C475.48 243.105 475.735 243 476 243Z" fill="#6B7280"/>
</g>
<g id="Duration: ~1 minute">
<text fill="#0846C3" style="white-space: pre" xml:space="preserve" font-family="Inter" font-size="14" font-weight="500" letter-spacing="0px"><tspan x="560.873" y="254.091">~1 minute</tspan></text>
<text fill="black" style="white-space: pre" xml:space="preserve" font-family="Inter" font-size="14" font-weight="500" letter-spacing="0px"><tspan x="496" y="254.091">Duration: </tspan></text>
</g>
</g>
</g>
<text id="Visitor check-in_6" fill="#111827" style="white-space: pre" xml:space="preserve" font-family="Inter" font-size="46" font-weight="800" letter-spacing="0px"><tspan x="450" y="332.455">Visitor&#10;</tspan><tspan x="450" y="388.455">check-in</tspan></text>
<text id="A visitor walks in for a meeting, or for any occasion" fill="#6B7280" style="white-space: pre" xml:space="preserve" font-family="Inter" font-size="16" letter-spacing="0px"><tspan x="450" y="437.818">A visitor walks in for a meeting, or for any occasion </tspan></text>
</g>
<g id="CTA button">
<rect x="450" y="481" width="205" height="56" rx="28" fill="#0846C3"/>
<text id="Launch experience" fill="white" style="white-space: pre" xml:space="preserve" font-family="Inter" font-size="14" font-weight="bold" letter-spacing="0px"><tspan x="470" y="514.091">Launch experience</tspan></text>
<g id="iconamoon:arrow-right-2">
<path id="Vector_10" d="M621 514L626 509L621 504" stroke="#EBF1FC" stroke-width="2" stroke-linecap="round" stroke-linejoin="round"/>
</g>
</g>
</g>
</g>
</g>
</g>
<defs>
<clipPath id="clip0_22_397">
<rect width="1024" height="768" fill="white"/>
</clipPath>
</defs>
</svg>
