<svg width="1024" height="768" viewBox="0 0 1024 768" fill="none" xmlns="http://www.w3.org/2000/svg">
<rect width="1024" height="768" fill="#1E1E1E"/>
<g id="Visitors">
<path d="M-4464 -234C-4464 -235.105 -4463.1 -236 -4462 -236H1497C1498.1 -236 1499 -235.105 1499 -234V1333C1499 1334.1 1498.1 1335 1497 1335H-4462C-4463.1 1335 -4464 1334.1 -4464 1333V-234Z" fill="#37393C"/>
<path d="M-4462 -236V-235H1497V-236V-237H-4462V-236ZM1499 -234H1498V1333H1499H1500V-234H1499ZM1497 1335V1334H-4462V1335V1336H1497V1335ZM-4464 1333H-4463V-234H-4464H-4465V1333H-4464ZM-4462 1335V1334C-4462.55 1334 -4463 1333.55 -4463 1333H-4464H-4465C-4465 1334.66 -4463.66 1336 -4462 1336V1335ZM1499 1333H1498C1498 1333.55 1497.55 1334 1497 1334V1335V1336C1498.66 1336 1500 1334.66 1500 1333H1499ZM1497 -236V-235C1497.55 -235 1498 -234.552 1498 -234H1499H1500C1500 -235.657 1498.66 -237 1497 -237V-236ZM-4462 -236V-237C-4463.66 -237 -4465 -235.657 -4465 -234H-4464H-4463C-4463 -234.552 -4462.55 -235 -4462 -235V-236Z" fill="white" fill-opacity="0.1"/>
<g id="Visitor - Successful check-in">
<rect width="1024" height="768" fill="#F3F4F6"/>
<g id="Nav bar ">
<mask id="path-3-inside-1_23_244" fill="white">
<path d="M0 0H1024V64H0V0Z"/>
</mask>
<path d="M0 0H1024V64H0V0Z" fill="white"/>
<path d="M1024 64V63H0V64V65H1024V64Z" fill="#E5E7EB" mask="url(#path-3-inside-1_23_244)"/>
<g id="Company logo">
<g id="Vector">
<path d="M53.6692 24.0708C53.3248 24.2975 53.0381 24.6025 52.832 24.9612C52.626 25.3199 52.5063 25.7223 52.4828 26.1361V28.488C52.5063 28.9018 52.626 29.3042 52.832 29.6629C53.0381 30.0216 53.3248 30.3266 53.6692 30.5533L56.124 32.0111C56.775 32.3902 57.3103 32.0792 57.3103 31.3211V23.3516C57.3103 22.5935 56.775 22.2826 56.124 22.6616L53.6692 24.0708Z" fill="#032461"/>
<path d="M53.4134 31.0629C53.057 30.8841 52.6632 30.7909 52.2638 30.7909C51.8644 30.7909 51.4706 30.8841 51.1141 31.0629L49.152 32.1783C48.8177 32.395 48.5392 32.6867 48.3391 33.0297C48.1391 33.3727 48.0229 33.7575 48 34.1532V36.8856C48 37.6105 48.5198 37.9079 49.152 37.5455L55.8017 33.735C56.4339 33.3725 56.4339 32.7823 55.8017 32.4199L53.4134 31.0629Z" fill="#032461"/>
<path d="M62.3309 24.0708C62.6752 24.2975 62.9619 24.6025 63.168 24.9612C63.374 25.3199 63.4937 25.7223 63.5172 26.1361V28.488C63.4937 28.9018 63.374 29.3042 63.168 29.6629C62.9619 30.0216 62.6752 30.3266 62.3309 30.5533L59.8712 32.0111C59.2202 32.3902 58.6897 32.0792 58.6897 31.3211V23.3516C58.6897 22.5935 59.2202 22.2826 59.8712 22.6616L62.3309 24.0708Z" fill="#032461"/>
<path d="M62.3627 31.0629C62.7342 30.8841 63.1447 30.7909 63.5609 30.7909C63.9772 30.7909 64.3877 30.8841 64.7592 31.0629L66.8042 32.1783C67.1521 32.3953 67.4415 32.6871 67.6492 33.0301C67.8569 33.3731 67.9771 33.7578 68 34.1532V36.8856C68 37.6105 67.4631 37.9079 66.8042 37.5455L59.8735 33.735C59.2146 33.3725 59.2146 32.7823 59.8735 32.4199L62.3627 31.0629Z" fill="#032461"/>
<path d="M52.2434 41.2283C52.6 41.4069 52.994 41.5 53.3937 41.5C53.7933 41.5 54.1873 41.4069 54.544 41.2283L56.5072 40.1099C56.8413 39.8922 57.1191 39.5999 57.3185 39.2566C57.5178 38.9132 57.6331 38.5284 57.6552 38.133V35.4042C57.6552 34.6802 57.1398 34.3833 56.5072 34.7452L49.8537 38.5506C49.2212 38.9126 49.2212 39.502 49.8537 39.8639L52.2434 41.2283Z" fill="#032461"/>
<path d="M58 38.1352C58.0233 38.5297 58.1437 38.9135 58.3513 39.2558C58.559 39.5981 58.8482 39.8893 59.1958 40.1062L61.2409 41.2285C61.6123 41.407 62.0228 41.5 62.4391 41.5C62.8554 41.5 63.2658 41.407 63.6373 41.2285L66.1265 39.8604C66.7854 39.4987 66.7854 38.9097 66.1265 38.548L59.1958 34.7451C58.5369 34.3834 58 34.6802 58 35.4037V38.1352Z" fill="#032461"/>
</g>
<g id="Name">
<text id="Nexus Technologies" fill="#111827" style="white-space: pre" xml:space="preserve" font-family="Inter" font-size="12" font-weight="bold" letter-spacing="0px"><tspan x="75.4399" y="36.3636">Nexus Technologies</tspan></text>
</g>
</g>
<g id="ADA logo + text">
<g id="Text">
<text id="Visitor check-in" fill="#111827" style="white-space: pre" xml:space="preserve" font-family="Inter" font-size="14" font-weight="bold" letter-spacing="0em"><tspan x="487.22" y="37.0909">Visitor check-in</tspan></text>
</g>
</g>
<g id="Date &#38; time">
<g id="Date">
<text id="16 March, Monday" fill="#111827" style="white-space: pre" xml:space="preserve" font-family="Inter" font-size="6.8" letter-spacing="0em"><tspan x="890.663" y="30.4727">16 March,&#10;</tspan><tspan x="896.208" y="38.4727">Monday</tspan></text>
</g>
<path id="divider" d="M930 24.25V39.75" stroke="#E5E7EB" stroke-linecap="round"/>
<g id="Time">
<text id="09:57" fill="#111827" style="white-space: pre" xml:space="preserve" font-family="Inter" font-size="14" font-weight="bold" letter-spacing="-0.62px"><tspan x="938.08" y="36.7709">09:57</tspan></text>
</g>
</g>
</g>
<g id="Success container" filter="url(#filter0_d_23_244)">
<path d="M241 154C241 145.163 248.163 138 257 138H767C775.837 138 783 145.163 783 154V614C783 622.837 775.837 630 767 630H257C248.163 630 241 622.837 241 614V154Z" fill="#032461" shape-rendering="crispEdges"/>
<g id="success info + reminder container">
<g id="Success Icon">
<rect x="468" y="178" width="88" height="88" rx="44" fill="#5B8FDE"/>
<g id="Component 1">
<path id="Vector_2" d="M498 222L508.889 232.889L527.556 211.111" stroke="white" stroke-width="5" stroke-linecap="round" stroke-linejoin="round"/>
</g>
</g>
<g id="Success text">
<g id="Header">
<text id="Welcome on-site" fill="white" style="white-space: pre" xml:space="preserve" font-family="Inter" font-size="38" font-weight="bold" letter-spacing="0px"><tspan x="354.155" y="325.636">Welcome on-site</tspan></text>
</g>
<g id="p">
<g id="You&#39;re all set. Have a safe and productive day.">
<text fill="#6B7280" style="white-space: pre" xml:space="preserve" font-family="Inter" font-size="18" font-weight="500" letter-spacing="0px"><tspan x="429.093" y="366.045"> </tspan></text>
<text fill="#E5E7EB" style="white-space: pre" xml:space="preserve" font-family="Inter" font-size="18" font-weight="500" letter-spacing="0px"><tspan x="315.257" y="366.045">You&#39;re all set.</tspan></text>
<text fill="#E5E7EB" style="white-space: pre" xml:space="preserve" font-family="Inter" font-size="18" font-weight="500" letter-spacing="0px"><tspan x="433.856" y="366.045">Have a safe and productive day.</tspan></text>
</g>
</g>
</g>
<g id="Reminder ">
<rect x="307" y="405" width="410" height="56" rx="10" fill="#063A9E"/>
<text id="Remember to check out when leaving the building" fill="#EBF1FC" style="white-space: pre" xml:space="preserve" font-family="Inter" font-size="16" letter-spacing="0px"><tspan x="323.133" y="438.818">Remember to check out when leaving the building</tspan></text>
</g>
</g>
<g id="Screen reset information ">
<g id="Text_2">
<text id="This screen will reset automatically" fill="#EBF1FC" style="white-space: pre" xml:space="preserve" font-family="Inter" font-size="14" font-weight="bold" letter-spacing="0px"><tspan x="360.632" y="564.591">THIS SCREEN WILL RESET AUTOMATICALLY</tspan></text>
</g>
<g id="Progress bar">
<rect width="313" height="4" transform="translate(355.5 586)" fill="#E5E7EB"/>
<path id="Progress line" d="M356 586H508C509.105 586 510 586.895 510 588C510 589.105 509.105 590 508 590H356V586Z" fill="#0846C3"/>
</g>
</g>
</g>
</g>
</g>
<defs>
<filter id="filter0_d_23_244" x="211.3" y="108.3" width="609.4" height="559.4" filterUnits="userSpaceOnUse" color-interpolation-filters="sRGB">
<feFlood flood-opacity="0" result="BackgroundImageFix"/>
<feColorMatrix in="SourceAlpha" type="matrix" values="0 0 0 0 0 0 0 0 0 0 0 0 0 0 0 0 0 0 127 0" result="hardAlpha"/>
<feOffset dx="4" dy="4"/>
<feGaussianBlur stdDeviation="16.85"/>
<feComposite in2="hardAlpha" operator="out"/>
<feColorMatrix type="matrix" values="0 0 0 0 0 0 0 0 0 0 0 0 0 0 0 0 0 0 0.3 0"/>
<feBlend mode="normal" in2="BackgroundImageFix" result="effect1_dropShadow_23_244"/>
<feBlend mode="normal" in="SourceGraphic" in2="effect1_dropShadow_23_244" result="shape"/>
</filter>
</defs>
</svg>
